/* XPM */
static char *cf960b6c25314b5acbe3e124cc6de648Gkho8EjX8qpC5ZGQ[] = {
/* columns rows colors chars-per-pixel */
"80 80 252 2 ",
"   c #060707",
".  c #0C0302",
"X  c #1B0202",
"o  c #170806",
"O  c #12140C",
"+  c #040C12",
"@  c #081519",
"#  c #181714",
"$  c #240301",
"%  c #2B0302",
"&  c #280A07",
"*  c #320300",
"=  c #3B0501",
"-  c #330A04",
";  c #3C0A04",
":  c #340D0C",
">  c #28140A",
",  c #35130C",
"<  c #3B1709",
"1  c #3B140B",
"2  c #271917",
"3  c #381A16",
"4  c #17241B",
"5  c #28261C",
"6  c #39241A",
"7  c #081B27",
"8  c #281C23",
"9  c #052429",
"0  c #172828",
"q  c #022D32",
"w  c #092934",
"e  c #022E3B",
"r  c #132831",
"t  c #03333D",
"y  c #083339",
"u  c #183738",
"i  c #272827",
"p  c #392927",
"a  c #3A3429",
"s  c #2A3030",
"d  c #293635",
"f  c #383937",
"g  c #440C03",
"h  c #460A04",
"j  c #471806",
"k  c #45140A",
"l  c #49140A",
"z  c #4B1C0B",
"x  c #551B08",
"c  c #451C15",
"v  c #4B1D13",
"b  c #541D12",
"n  c #5A1F15",
"m  c #4A230D",
"M  c #59250D",
"N  c #492719",
"B  c #532315",
"V  c #582816",
"C  c #54251C",
"Z  c #542C1C",
"A  c #5A2C1C",
"S  c #4D361C",
"D  c #5A331C",
"F  c #66280B",
"G  c #742E0C",
"H  c #632D13",
"J  c #652B1A",
"K  c #63331C",
"L  c #693418",
"P  c #6B391C",
"I  c #783A1B",
"U  c #442C22",
"Y  c #4D2C23",
"T  c #462928",
"R  c #512823",
"E  c #552E23",
"W  c #5B2D23",
"Q  c #483528",
"!  c #4D3B2C",
"~  c #553324",
"^  c #5C3423",
"/  c #5E3B25",
"(  c #533429",
")  c #5C342A",
"_  c #543A2B",
"`  c #5D3B2A",
"'  c #462F34",
"]  c #473A34",
"[  c #533C33",
"{  c #573935",
"}  c #5C3B33",
"|  c #6A2F20",
" . c #643424",
".. c #6B3523",
"X. c #643A24",
"o. c #6B3B25",
"O. c #65352B",
"+. c #643D2C",
"@. c #6B3D2B",
"#. c #743C23",
"$. c #783C25",
"%. c #733E29",
"&. c #633C32",
"*. c #6A3D31",
"=. c #763C32",
"-. c #1B403F",
";. c #27433E",
":. c #3E453C",
">. c #5D402C",
",. c #4A4338",
"<. c #584537",
"1. c #5C443A",
"2. c #5B4B3C",
"3. c #63412C",
"4. c #6C422C",
"5. c #6E472E",
"6. c #73432C",
"7. c #79442C",
"8. c #79482A",
"9. c #644334",
"0. c #6C4433",
"q. c #6C4834",
"w. c #644639",
"e. c #6C453B",
"r. c #644B3C",
"t. c #6B4B3B",
"y. c #734532",
"u. c #7B4631",
"i. c #744A35",
"p. c #7B4B34",
"a. c #774639",
"s. c #744D3C",
"d. c #7B4D3B",
"f. c #6D523C",
"g. c #7B5136",
"h. c #74513C",
"j. c #7C523C",
"k. c #023542",
"l. c #033B46",
"z. c #0B3C45",
"x. c #033D4A",
"c. c #123B45",
"v. c #2C3E43",
"b. c #04434C",
"n. c #07454D",
"m. c #174348",
"M. c #084956",
"N. c #144956",
"B. c #065357",
"V. c #0B545C",
"C. c #185456",
"Z. c #13535A",
"A. c #324C4B",
"S. c #364D53",
"D. c #0F4D61",
"F. c #0D5864",
"G. c #145765",
"H. c #10626A",
"J. c #31666B",
"K. c #494A46",
"L. c #584B44",
"P. c #4A524A",
"I. c #575549",
"U. c #554C54",
"Y. c #4B5655",
"T. c #555756",
"R. c #634C42",
"E. c #694E45",
"W. c #764C41",
"Q. c #6C5144",
"!. c #665449",
"~. c #745343",
"^. c #7B5543",
"/. c #7D5A45",
"(. c #74554A",
"). c #7A5648",
"_. c #74594C",
"`. c #7C5B4B",
"'. c #695D54",
"]. c #735D52",
"[. c #7B5D51",
"{. c #40635B",
"}. c #5C625D",
"|. c #77604E",
" X c #67665A",
".X c #7A6357",
"XX c #4C5D61",
"oX c #5D5C60",
"OX c #795E60",
"+X c #596667",
"@X c #577D78",
"#X c #646A68",
"$X c #796B63",
"%X c #6F7871",
"&X c #844829",
"*X c #87502C",
"=X c #824C34",
"-X c #854E39",
";X c #875334",
":X c #8A5435",
">X c #83533C",
",X c #8A553C",
"<X c #86593D",
"1X c #8C5B3D",
"2X c #925B3D",
"3X c #834E45",
"4X c #835542",
"5X c #845A44",
"6X c #8C5B43",
"7X c #865648",
"8X c #845C4A",
"9X c #8A5C4A",
"0X c #935C43",
"qX c #905B4E",
"wX c #815E51",
"eX c #8B6247",
"rX c #85614D",
"tX c #8C624C",
"yX c #976547",
"uX c #94644C",
"iX c #94684D",
"pX c #836353",
"aX c #8C6452",
"sX c #8B6955",
"dX c #83685A",
"fX c #8B6C59",
"gX c #936553",
"hX c #946C53",
"jX c #966C55",
"kX c #957158",
"lX c #9B735B",
"zX c #A16A4D",
"xX c #876C62",
"cX c #8A7163",
"vX c #997965",
"bX c #907B74",
"nX c #A47C64",
"mX c #4D8079",
"MX c #8C857B",
"NX c #A8836A",
"BX c #7B7F83",
"VX c #5C8886",
"CX c #58918B",
"ZX c #6C8781",
"AX c #729388",
"SX c #68B3AF",
"DX c #7DD9CD",
"FX c #9C8887",
"GX c #8E8D90",
"HX c #B89D99",
"JX c #A29DA0",
"KX c #8BD5D5",
/* pixels */
"U.U.Y.K.K.#X'.'.U.Y.Y.T.T.U.T.T.T.U.U.T.T.P.P.P.K.Y.Y.T.T.T.Y.Y.T.K.K.T.XXXX+X+XoX+X+X+X+X+X+X+X+X+X+X+X+X+XXX#X#XY.Y.}.T.T.#XU.U.'.Y.Y.S.S.S.S.S.S.v.v.i i i g ",
"U.U.Y.K.K.#X'.'.U.Y.Y.T.T.U.T.T.U.U.U.T.T.P.P.P.K.Y.T.T.T.T.Y.Y.T.K.K.T.XXXX+X+XoX+X+X+X+X+X+X+X+X+X+X+X+X+XXX#X#XY.Y.}.T.T.+XU.U.T.Y.Y.S.S.S.S.S.S.v.v.i i i g ",
"T.T.O > 2 c 2 2 > 3 3 3 3 2 T T 6 8 8 8 8 a 2 2 p p p p p p 6 6 p T T T p p ( ! ' T T ' 5 5 p p a s s ' a a ' a a p p p s s s v.f ' ] ] p p p 2 2 2 2 2 2 # O * ",
"T.T.Y ] ] R.Z.C.,.# O $X$XK.!.!.] i i i i ] a a # i i 2.,.K.f f # !.!..X_._. X X,.P.P.T.#X#X#XK.p }.}.#X#X#X#XP.P.T.}.I.Y.Y.XX}.}.@XZXZX@X@XS.:.:.P.XXXXZXZXVXb ",
"T.T.R ] ] R.C.C.,.# O $X$XK.!.!.] i i i i ] a a # i i 2.K.K.f f # !.!..X_._. X X,.P.P.T.#X#X#XK.p }.}.#X#X#X#XP.P.#X#XI.Y.T.XX}.}.@XZXZX@X@XS.:.:.P.XXXXZXZXVXb ",
"#X#XpXt.t.X.1.1. X2 & 3.3..XfXfXgX(.(.`.`.fXwXwXN R.R.).t.w.~ ~ e.fXfXvXhXhXsXsXR.[.[.E.].].].} v w.w.pX|.|.dXz z vXvX].cXcXdX&X&XfXxXxXE.E.$ A A N.] ] [ ] ,.l ",
"#X#XpXs.s.z B.B.Y.2 o 8X8X5XfXfXlXpXpXfXfX.X`.`.C E.E.`.Q.R.cXcXW.NXNXsXvXvXsXsX1..X.X[._._.'.{ v e.e.`.dXdX_.j j `.`.bX!.!.`.=X=XcXpXpXw.w.$ T T @ xXxX`.Q.R.l ",
"#X#XpXs.s.z B.B.Y.2 o 8X8X5XfXfXlXpXpXfXfX.X`.`.C E.E.`.Q.R.cXcXW.NXNXsXvXvXsXsX1..X.X[._._.'.{ v e.e.`.dXdX_.j j `.`.bX!.!.`.=X=XcXpXpXw.w.$ T T @ xXxX`.Q.R.l ",
"%X%X`.9.9.M.O O _.3 , H.H.~.t.t.iXbXbXvXvX.XrXrX) [ [ dX1.! fXfX`.kXkXsXtXtXaXaX!..X.XQ.[.[.!.) l _ _ _..X.X(.z z [.[.r.bXbXE.....Q.L.L.'.'.w , , R.l.l.'.!.!.k ",
"GXGXE.d d N.[ [ [.N 1 C.C.N.rXrXuXcXcXkXkX[.).).E Q Q `..X.X8X8X`.aXaXsXlXlXfXfX1.r.r._..X.X!.( g ( ( dXdXdX(.B B .X.X.X[.[.r.-X-X.X] ] c.c.$ - - w.,.,.N.S.R.l ",
"GXGXR.u u N.<.<.[.N 1 A.A.M.rXrXuXcXcXkXfX[.)./.E Q Q `.dXxX8X8X[.aXaXfXvXvXfXfX1.1.1.].dXdX!.( g ~ ~ dXdXdX(.B B .XpXdX]._.r.-X-XdX] ] k.k.$ - - e.<.<.N.S.R.l ",
"BXBX  Z.Z.A.Q Q B.Z.Z.4 4 =XF.F.3.S.S.nXnXeX^.^.O.{ [ Q./.8Xi.i.e.aXaXvXNXNX5X5X! [.[.Q..X.XR.} C *.*.~.wXwX} B B dXdXQ.1.1..XT.T.xXy y r.r.M.N.N.p /./.z.u i ; ",
"BXBX  Z.Z.A.Q Q B.Z.Z.4 4 =XH.H.3.Y.Y.nXnXeX^.^.O.{ { Q.`.8Xi.i.e.aXaXvXNXNX5X5X! [.[.Q..X.XR.} C *.*.~.wXwX} B B dXdXQ.1.1..XT.T.$Xw y r.r.M.N.N.p /./.z.u i ; ",
"MXMX@ M.M.F.( ( (.c k /./.<.` ` 7X(.(.jXhX[.Q.Q.C { { `.t.&.cXcX).5X5XkXkXkXlXlX{ ~.~.(.[.[.!.{ v } } (.`.`.).V V 8X8XdX'.'.E.d.d.rXL.L.cXcX% - - _..X.XN.y @ % ",
"FXFX@ b.n.B.F.F.G.F.V.V.V.F.V.V.J.F.F.B.B.V.V.V.G.D.D.F.D.D.N.N.,.8X8XtXrXrXkXkX( ).).(.(.(.].{ v N.N.V.V.V.M.M.M.G.G.D.M.M.B.n.n.n.N.N.M.M.M.G.G.M.n.n.k.9 @ - ",
"FXFX@ n.n.B.F.F.G.F.V.V.V.F.V.V.J.F.F.B.B.V.V.V.G.D.D.F.D.Z.N.N.,.8X8XtXrXrXkXkX( ).).(.(.(.].{ v N.N.V.V.V.M.M.M.G.G.D.M.M.B.n.n.n.N.N.M.M.M.G.G.M.n.n.k.9 @ - ",
"JXJXe G.G.D.y.y.E.R C 8X8XU 5X5XgX0.0.h.h.`.).).z 1.1.`.).^.( ( W.rXrXfXkXkXlXlXQ t.t.s././.Q.W g C C q.rXrX^... .8X8X~.rXrXw.=.=.rX9X9X`.`.* . . 7X@ @ b.e 7 % ",
"%X%Xu B.V.2.N N m.A.A.R.R.=XZ.Z..X;.;.nXnXiX` +.B &.&.pX9.^ kXkX9XiXiXhXNXNXuXuX6 ~.~.t.^.^.). .g B B /.j.j.i.....aXsXrXt.t.(.n.n.y L.L._._.5 u u 8.^ ^ b.9   $ ",
"%X%Xu B.V.L.N N m.A.A.R.R.=XZ.Z..X;.;.nXnXiX+.+.B &.&.pX9.^ kXkX9XiXiXhXNXNXuXuX6 ~.~.t.^.^.).W g B B /.j.j.i.....aXaXrXt.t.(.n.n.y L.L._._.5 u u 8.^ ^ b.9   $ ",
"JXJX5XZ.C.;././.K B b N.N.B.^ ^ 0Xd.d.6X6Xj.i.i.v ) ) ^.).).rXrX7XhXhXtXnXnXrXrX3 ~.~.).8X8Xe.C ; C C gXlXlXi.=X=XsXsX^.`.`.).| | s.T p J.J.: + + q.t.t.z.f _ $ ",
"JXJX5XC.C.m.^.^. .B v N.N.B.X./ 0Xd.d.6X6X^.p.p.v ) ) ~.).).rXrX7XhXhXtXnXnX9X9X3 ~.~.).8X8Xw.C = C B gXkXkXi.u.u.sXsX^.`.`.).L L s.Q Q J.J.: + + q.t.t.z.f _ $ ",
"].].h.4X4XB.~.~.8XN c V.V.<.>X>X5X7X7XeXeXeX9X9Xz C C 0.4.+.i.i.gXtXtXtXlXlX5X5XY t.t.)././.9.N - b b gXt.t.d.u.u.kXkXsXaXaX7XJ J ` rXrX+ + 2 = = eXu u 0 a >.$ ",
"FXFX`./ ` I Z.Z.z.@ O u.u.1X1X1Xu.9X9XhXiX4.4X4XB ) ) j.5XeX0.0.qXjXjXeXiXiX4X4XT >.>.s././.~.E ; h h p.0X0XsX@.@.X.X.j.0.0.8XJ J 0.5X5XrXrX2 c.z.u z.z.e.9.w.$ ",
"FXFX`.` ` I Z.Z.z.@ O u.u.1X1X1Xu.9X9XhXiX4.4X4XB ) ) j.5XeX0.0.qXjXjXeXiXiX4X4XT >.>.s././.~.E ; h h i.0X0XsX@.@.X.X.j.0.0.8XJ J q.5X5XrXrX2 c.z.u z.z.e.9.w.$ ",
".X.Xw.m m u.i 5 aX .^ 1X1X2X2X2XuXgXgXeXeX>Xd.d.B  . .y.p.j.gXgXe.lXlXiXyXyX6X6X3 t.t.s.4X4X~.W g h g aX5X5X7X-X-Xj.j.d.i.i.6Xl x rXy.y.4.5.b h h c.W.W.s.e.>.% ",
"HXHXs.j j 3 N.C.s.W A <X<X*X;X;X1XgXgXiXiXeX9X9Xv O.O.s.K V 9X9Xi.eXeX6X1X1X8.8.3 t.t.9.i.i.s.W = l l d.uXuXi.-X-XuXuXu.tXtXo.B n 9.7X7Xy.y.C h h O x.x.e.&.` * ",
"HXHXs.j j 3 C.C.W.W A <X<X*X:X:X1XgXgXiXiXeX9X9Xv O.O.s.K V 9X9Xi.eXeX6X1X1X8.8.3 t.t.9.i.i.s.W = l l d.uXuXi.-X-XuXuXu.tXtXo.B B 9.5X5X0.0.C h h O x.x.e.9.` * ",
"$X$X&.z z N 9X9Xe.B v 7.7.2X,X,X7.4X4X6X6Xp.>X>Xl E E d.eXiX4X4X5X5X5XeXyXyX1X1X6 4.4.~.h.h. X} ; = = 9XyXyXuX=X-X6X6X4Xi.i.6Xx x >X^.^. . .R h h p.4X4X0.} _ * ",
"bXbX9.m m j 6X6X0.C B g.g.1X0X0Xp.a.a.6X6X<Xo.o.l N N i.6XuXp.p.>X<X<X1XyXyXp.p.6 j.j.s.i.i.(.~ ; h h eXd.d.>Xp.p.6X6XgXi.i.6Xx x E.>X>X^ ^ A l l i.j.j.0.9.9.l ",
"MXMX0.m m 1 6X6X4.C C >Xj.1XyXyXj.0.0.6X6XeXH H l N N i.4X0Xp.p.>X<X<X1XyXyX6.6.6 8X8Xs.i.i.Q.E ; h h eX0.0.p.p.p.9X9XlXi.i.6Xx x L.,X,X^ ^ K l l e.d.d.0.0.9.B ",
"bXbX4.j j &X^ ^ ^ B v 6.6.6.1X1Xy.@.@.6X6XiXd.d.z v v 6.>X6X4X4XgX6X6XyX1X1Xd.d.N ).).W.i.i.).^ g h h j.6X6Xp.=.=.>X>XiX6.6.<Xg g >XrX9Xe.e.pXn n s.7X7Xs.0.9.v ",
"bXbX4.j j &X^ ^ ^ B v 6.6.6.1X1Xy.@.@.6X6XiXd.d.z v v y.>X6X4X4XgX6X6XyX1X1Xp.p.N ).).W.i.i.).^ g h h j.6X6Xp.=.=.>X>XiX6.6.<Xg g >XrX9Xe.e.pXn n d.7X7Xs.0.9.v ",
"FXFX^  . .B o.o.y.l g =Xp.K ,X,Xq.@.@.<X<XyXi.i.l 1 1 4XuXgX@.@.3XiXiXlX2X2X>X>X1 h.h.s.0.0.`.W * ; ; j.6X6X6Xu.u.u.u.iX=X=Xj.l l <X6X6Xj.j.*.l l ).0.0.0.&.&.g ",
"MXMX@.p.p.V B B >XV B 7X7X1X0.0.+.*.*.p.p.4.6.6.g 1 1 >X6X0Xg.g.u.jXjXeXiXiX1X<X6 s.s.s.`.`.Q.R * * * >X2X0XiXd.d.9X9X4.aXaXrXh h `.j.j.^ ^ 8Xl l +.&.9.&.&.&.1 ",
"MXMX@.p.p.V B B >XV B 7X7X1X0.0.+.*.*.p.p.6.6.6.g 1 1 >X6X0Xg.g.u.jXjXeXiXiX<X<X6 s.s.s.`.`.Q.R * * * >X0X0XiXW.d.7X9X4.aXaXrXh h `.p.p.^ D 8Xl l +.&.9.+.&.&.1 ",
"[.OXA +.+.3 9X9Xm l l -X-X1X%.%.*.O.O.<X>Xo.d.d.l 3 3 i.eXhXs.s.a.lXlXiX5X5Xj.d.1 pXpX~.~.~.w.N % = = i.,X,XiXd.d.>X4X9X9X8Xj.h h tX0.0.h.h._.C C ` ` ` i.9.` : ",
"FXFX6 , , 1 o.o.lXk ; %.6.6Xy.y...+.+.>X<X6.,X,Xl 3 3 0.^ ^ i.q.y.iXiX6XjXjXj.j.Z f.f.Q.~.~.~.Y % * * eXp.p.>Xy.y.y.y.i.^.^.i.h h jXs.s.aXaXw.C C 0.s.s.9.} _ X ",
"FXFX6 , , 1 o.o.lXk ; %.6.6Xy.y...+.+.>X<X6.,X,Xl 3 3 0.^ ^ q.q.y.iXiX6XjXjXj.j.Z f.f.Q.~.~.~.Y % * * eXp.p.>Xy.y.y.y.i.^.^.i.h h jXs.s.aXaXw.C C 0.s.s.9.} _ X ",
"dXdX+ >X>X=X=X=XX.g ; L L :X~ ~ *.&.&.p.p.u.o.o.k , , V >XgX4.4.7.hXhX@.uXuXi.i.N pXpXw.Q.Q.^.W ; * * 0.X.X.>Xi.i.uXiX).pXaX(.h h ).`.`.8X8X[.b B 7.^.^.0.&.{ X ",
"dXdX+ >X>X=X=X=XX.g ; L L :X~ ~ *.&.&.p.p.u.o.o.k , , V >XgX4.4.7.hXjX@.uXuXi.i.c pXpXw.Q.Q.~.W ; * * 0.X.X.>Xi.i.uXiX7XpXaX(.h h ).`.`.9X8X`.B B 7.^.^.0.&.{ X ",
"cXcXS.p.p.1 1 1 K : - o.o.%.Y Y X.} } 6X4X7.=X=X* 3 3 4XK M @.@.6XlXlXh..X.X5X5X3 r.r.r.%X%Xr.Y ; % % ^.uXuXy.-X-X0.0.d.gXgX^.h h 5XhXhX`.`.e.c c s.j.j.0.e.E.$ ",
"$X$X@ j.j.:X0X0X4.V b 4X4XH Y Y >XE E >Xj.6.V V % 1 1 d.y.6.4.4.p.j.j.VX( ( >X>X6 q.q.' @X@XR.Y - = = i.4.4.i.O.@.4X4X).8X8Xs.= = eXsXsXsXsX{ W W e.o.o.i.e.w.o ",
"$X$X@ j.j.:X0X0X4.V b 4X4XH Y Y >XE E >X>X6.V V % 1 1 a.y.6.6.6.p.j.j.VX( ( >X>X6 q.q.' @X@XR.Y - = = i.4.4.i.O.@.4X4X).8X8Xs.= = eXsXfXsXsX{ W W e.o.o.i.t.w.o ",
"!.!.u i.i.=X0.0.g.v k u.u.p.W W i.w.w.4.o.P j.j.c : : d.4X6X>X>X^.s.s.KX@X@X6 6 N I.I.U AXAX}.Q % ; ; 4.6X6Xu.^ ^ 9X9XwXh.h.s.h h (.` ` kXkX).=.=.4Xy.y.i.t.R.o ",
"9.9.7 ^ ^ B j j o.c 1 4X4X&X5X6XeXj.j.K K ..o.o.; 3 3 d.6.@.7.7.^.eXeXSXVXVXt.t.6 F.F.[ DXDX X] : = = 4X,X,X4XO.O.d.d.5Xj.j.` h h s.h.h.q.q.3Xx x i.d.d.i.9.} . ",
"9.9.7 ^ ^ B j j o.c 1 4X4X&X6X6XeXj.j.K K ..o.o.; 3 3 d.6.@.7.7.^.eXeXSXVXVXt.t.6 F.F.[ DXDX X] : = = 4X,X,X4XO.O.d.d.5Xj.j.` h h s.h.h.q.q.3Xx x i.d.d.i.9.} . ",
"O.+.3 - - - >X>Xz ; : <X<X1X:X:XhXwXwX6X6X,X,X,X1 > > -Xo.K >X>Xs.j.j.SXCXCX[ [ , F.F.U KXKXP.U ; ; ; @.6X6Xt.` ` >X>X3.^.^.0.* * >.sXsX` ` ) ....e.d.d.i.e.9.X ",
"0.0.N B B V o.o.K k k 6X6X1X2X2XhX~.~.6X1X-X>X>X; > > y.@.o.>X>X0.~.~.@X@X@X_ _ 3 F.F.a SXSX}.] k = = i.6X6Xs.~ ~ j.j.q.).).d.* * e.`.`.&.&.( ....+.u.u.y.+.( X ",
"s.s.^ %.%.$.m m 7.b l uXuX:XzXzXjXf.f.,X,Xp.>X>X= & &  .o.%.4X4Xo.Q.Q.A.{.{.( ( 6 G.G.f mXmXmXL.c = = j.6X6X^.Y Y ^.^.h././.5X% % s.~.~.e.e.~  . .) y.y.0.^ N $ ",
"i.0. .=X=XB K K  .c 1 1X1X;XyXyXcX5.5.7.%.J ;X;X% : : @.L H ).).@.d.d.f 4.4.4.4.3 +.+.Z I.I.( N 3 h h d.uXuXd.c c d.d.^.7X7Xj.= = W.+.+.).).`.....-X@.@.0.` E $ ",
"0.0. .=X=XB K K  .c 1 1X1X;XyXyXcX5.5.7.%.J ;X;X$ : : @.L H ).).@.j.d.f 4.4.4.4.3 +.+.Z I.I.( N 3 h h d.uXuXd.c c d.d.^.7X7Xj.= = W.O.O.).).`.....-X@.@.0.` E % ",
"@.@.Z %.%.c -X,XW B B i.i.H 6X6X.Xy.y.P P ..x x * : : B ..%.4X4Xi.6X6XK I.I.p.p.& ^ ^ e.4 4 _ N k g g 7.5X5Xj.) ) gXgX9Xd.d. .* * ).t.t.0.0.~ ....i.K K +.) ~ $ ",
"i.i.N j l -X>X>Xq.k 1 >X>XH 6.6.<.e.e.H H #.$.$.* $ % o.L L s.d.Z j.j.6X&X&X>X>X$ q.q.Z ~ ~ d. .l * * >X,X,Xi.R C 7.7.d.5X5X7X% % N ( ( W W ^. . .0.u.u.+.` ) & ",
"i.i.N j l -X>X>Xq.k 1 >X>XH 6.6.<.e.e.H H #.$.$.* $ % o.L L s.s.Z j.>X0X&X&X>X>X$ q.q.Z ~ ~ d. .l * * >X,X,Xi.C C 7.7.d.5X5X7X% % N ( ( W W ^. . .0.u.u.+.` ) & ",
"A A ^ u.y.=XK K 5X1 : g.g.x X.X.f.e.e.H H V P P % % & A @.u.4.4.W 6X6X=XyXyXj.j.% s.s./.+.+.3.Z 1 g g jXi.i.7XV V 4X4X5XgXgXg.* * ^.eXeX` ` 0.J J e. .^ ^ ~ ~ $ ",
"K K } 7.7.m @.@.@., > 8.8.p.p.p.W.&.&.P P H #.#.% & & K p.4X+.+.) 6X6X6X1X1X1X1X$ 0.0.4X4.4.~.` m k k 6X,X,Xu.B B ,X,X/.5X5Xd.= = +.Z Z 0.0.@.J | X.^ ^ Z Z N $ ",
"K K } 7.7.m @.@.@., > 8.8.p.p.p.W.&.&.P P H #.#.% & & K p.6X+.+.) 6X6X6X1X1X1X1X$ 0.0.7X4.4.~./ m k k 6X,X,Xu.B B ,X,X).5X5Xd.= = +.Z Z 0.0.@.| | X.^ ^ Z Z N $ ",
"V V E ; ; z c.c.Z , : 8.8.=X>X>Xu.+.4.H M H L L $ % % V K P %.%./ 7.7.=X:X:X;X;X$ 9.9.4.+.+.).) k ; ; p.6X6Xp.B B o.%.d.u.u.%.% % / X.X.V V ^ b b ! 9 9 +.~ N & ",
"V V E ; ; z c.c.Z , : 8.8.=X>X>Xu.+.+.M M H L L $ % % V K P %.%./ 7.7.=X:X:X;X;X$ 9.9.4.+.+.).) k ; ; p.6X6Xp.B B o.%.d.u.u.6.% % / X.X.V V ^ b b ! 9 9 +.~ N & ",
"V V N x x 1 &.&.t.c 1 6.6.8.Z Z >Xy.y.L L H &X&X% & & 6.K A i.i.Z 7.7.&X:X:X=X=XX ~.~.B E E ^ A V = = =X6.6.6.A A ,X,Xj.6.6.y.% % +.i.i.^.^.^ b b O ^ ^ ^ Z N X ",
"Z Z / 1 1 C l.l.|.2 o 6.6.j 7.7./.q.q.F F H #.#.1 & & %.7.p.@.@.^ =X=X&X&X&X*X*XX ( ( @.^ ^ A B z g g =XP P 6.v v <X<Xp.X.X.d.- - 3.9X9Xu.u.~.f f 0 q q 1 m N X ",
"E Z / 1 1 C l.l.|.2 o 6.6.j 7.7./.q.q.F F H #.#.1 & & %.7.p.@.@.^ =X=X&X&X&X*X*XX ( ( @.^ ^ A B z g g =XP P 6.v v <X<Xp.X.X.d.- - 3.9X9Xu.u.~.f f 0 q q 1 m N . ",
"3.3.N U U n.2 2 $.& X t t 5.u.u.h.6.6.P P L H H % % % I :X0Xo.o.S 8.8.I I I &X&X. r.r.B @.@.O.W v g g M 8.8.6.c c @.@.P 0.0.s.- - o./ / y.y.9 b b D & & w i m . ",
"r.r.N r r y J J m & $ p p t 4.4.9. . .L H x x x X $ $ P #.7.q.q.) P P F I I I I X >.>.0.A A ^ ~ ( ; ; x #.#.8.1 1 y.y.i.p.p.5.& & z 6 6 q q i 3 3 ~ 3.3.9 0 2 o ",
"r.r.N r r y J J m & $ p p t 4.4.9.^ ^ L H x x x X $ $ ..#.7.q.q.) P P F I I I I X } } 0.A A ^ ~ ( ; ; x #.#.8.1 1 y.y.i.u.u.5.& & z 6 6 q q i 3 3 ~ >.3.9 0 2 o ",
"+.+.9 z.z.i 1 1 t t t 4 4 x e e ` u u I L b z z X $ $ o.4.6.V V Q.8.8.G I I I I X ( ! 6.H H Z N 1 - - x I I P 1 , u.p.y.D D D y y S y y m m o w w 5 Z Z @ 9 9 . ",
"/ ` @ e e k.[ [ Q & & p.p.8X6 6 1 1.9.P P F g g X X X 6./ ( i.i.E.=X=XG *X*X&X&Xo ( ( i.D D y.X.Z , , o.L L H 3 3 m m ^ k l j.$ $ o.i.i./ / ^ N 6 1 / / q q y   ",
"/ / @ e e k.[ [ Q & & p.p.5X6 6 1 1.9.P P F g g X X X 6./ ( i.i.E.=X=XG *X*X&X&Xo ( ( i.D D y.X.Z , , o.L L H 3 3 m m ^ k l j.$ $ o.i.i./ / ^ N N 1 / / q q y   ",
"t.t.  x.x.l.k.k.k.x.b.k.k.k.k.k.n.l.l.l.l.k.x.x.l.b.b.n.x.x.M.M.d >X>XF I I &X&XX !.!.Z E E ~ ( ( m.m.M.k.k.x.b.b.x.x.k.e e z.t t N.e e y y e e e t w w 9 9 w   ",
"t.t.  x.x.l.k.k.k.x.b.k.k.k.k.k.n.l.l.l.l.k.x.x.l.b.b.n.x.x.M.M.d >X>XF I I &X&XX !.!.Z E E ~ ( ( m.m.M.k.k.x.b.b.x.x.k.e e z.t t N.e e y y e e e t w w 9 9 w   ",
"! !   x.x.l.) ) o X X m m ) / / > ! ! x x x z z & X X L u.d.l l Q >X>XF F F 7.7.& <.<.k N N / +.y.3 3 k D D q.6 6 y.y.4X^  .D - - N 5.5.~ ~ 1.: : c 1 1 q q w . ",
"2.2.+ z.z.y d.d.f s 0 ,.,.] s s # t t x x M x x $ X X s.h.^.3.3.Q 8X8XI I I F F o ,.,.B ^ ^ B Z ~ N c ~ z m j.! ! +.+.X.D D o.k.k.2 e e Y Y ;.y y i / / 9 9 7 . ",
"2.2.+ z.z.y d.d.f s 0 ,.,.] s s # y t x x M x x $ X X s.h.^.3.3.Q 8X8XI I I F F o ,.,.Z ^ ~ B Z ~ N c ~ z z j.! ! +.+.X.D D o.k.k.2 e e Y Y ;.y y i / / 9 9 7 . ",
",.,.] r r n.p p U > > @ @ t V V r.[ [ x x F I I $ . . Z [ <.M.M.Q /./.&X:X:XL L o 1.1.6 j j ( _ ! [ [ M.<.<.i.N N 9.1.^ X.X.V 3 3 r.5 5 t t # 6 6 Z Z Z w 0 5 . ",
"K.K..X2.2.l.s s 2.6 6 m.m.f h.h._ R.R.P L x 8.8.3 . . ~.w.9.i i 2.aXaX:Xg.g.7.7.> a a <.6 6 ~ _ 1.T T i >.>.3.U U N N Z N N D N N Y Q Q 5 5 e p p ` r r w 0 6   ",
"K.K..X2.2.l.s s 2.6 6 m.m.f h.h._ R.R.P L x 8.8.3 . . ~.w.9.i i 2.aXaX:Xg.g.7.7.> a a <.6 6 ~ _ 1.T T i >.>.3.U U N Z Z N N D N U Y Q Q 5 5 e p p ` r r w 0 6   ",
"'.'.2.K.K.5 n.n.M.c.c.1.1.R.q.q.h.2.2.M M 6.6.8.6   . r.!.!.,.,.<.rXrX8.8.8.j.j.& ] ] ,.a a <.2.L.3 6 t.Z Z 3.p p ! ! Z N N N Q Q N <.<.>.>.! @ @ 7 l.l.N N Y o ",
"T.I.2.,.,.f -.-.m.A.;.Q.Q.<._ _ Q.2.L.H K 6.g.g.3 . . 1.<.<.I.I.,.`.`.i.5.5.h.h.o K.K.I.L.L.2.2.L.p p w.Z Z >.6 6 U U Z _ _ +.! ! ! 2.2.! ! [ 2 2 0 0 0 N U U O ",
"Y.Y.K.:.:.A.a a v.,.,.|.|.Y Q Q !.R.R.X.X.q././.> . . <.Q Q  X X,.~.~.h.4.4.h.h.o T.T.#X X XL.L.<.] ] w.~ ~ >.5 5 6 6 ~ w.r.(.,.,.<.2.r.a a 2.p p s 3 3 U p p # ",
"P.P.Y.f f ] H.H.A.A.A.MXMX XP.P.T.P.P.1.1.s._._.4 O O T.:.a Y.Y.S. X X!.2.2.I.I.2 4 4 Y.L.P.,.,.,.s s L.~.~.<.0 0 5 5 p ,.,.L.5 5 d K.K.d d P.0 0 r b.b.0 r r 2 "
};
