/* XPM */
static char *result[] = {
/* columns rows colors chars-per-pixel */
"80 80 219 2 ",
"   c #010501",
".  c #020B03",
"X  c #080D08",
"o  c #051405",
"O  c #061309",
"+  c #0B140B",
"@  c #0B1B0D",
"#  c #111C0D",
"$  c #0C1114",
"%  c #0C1B12",
"&  c #151C14",
"*  c #1B1B11",
"=  c #14181A",
"-  c #221F01",
";  c #0B230C",
":  c #0A280C",
">  c #15250C",
",  c #162A0B",
"<  c #0C2914",
"1  c #132314",
"2  c #132B14",
"3  c #192A17",
"4  c #192418",
"5  c #142C1B",
"6  c #1B2C1C",
"7  c #143215",
"8  c #1A3316",
"9  c #14331B",
"0  c #1B341B",
"q  c #153B1D",
"w  c #1B3A1D",
"e  c #2B280B",
"r  c #2F3313",
"t  c #24361C",
"y  c #233A1D",
"u  c #3B3B1C",
"i  c #141F27",
"p  c #1A1E22",
"a  c #1E2525",
"s  c #1A2825",
"d  c #152028",
"f  c #1E282F",
"g  c #1C3423",
"h  c #1B3A26",
"j  c #1D3E33",
"k  c #242D25",
"l  c #233323",
"z  c #233C24",
"x  c #2A3C24",
"c  c #26392A",
"v  c #2B3D2C",
"b  c #333521",
"n  c #363E2A",
"m  c #283B35",
"M  c #333935",
"N  c #493D09",
"B  c #3D4A11",
"V  c #1D4127",
"C  c #254224",
"Z  c #2A4326",
"A  c #25422B",
"S  c #2B442B",
"D  c #26492B",
"F  c #2C4A2C",
"G  c #33452B",
"H  c #344A2C",
"J  c #2F512F",
"K  c #32502F",
"L  c #2C4B33",
"P  c #284935",
"I  c #334C33",
"U  c #374A37",
"Y  c #2E5238",
"T  c #345235",
"R  c #3B5335",
"E  c #3B543C",
"W  c #3B5838",
"Q  c #3A593A",
"!  c #4F4007",
"~  c #524306",
"^  c #554807",
"/  c #5C4A04",
"(  c #564B0B",
")  c #5A4D0D",
"_  c #5A500F",
"`  c #45461B",
"'  c #5B4F12",
"]  c #5C5212",
"[  c #5D5319",
"{  c #624E04",
"}  c #614E08",
"|  c #665104",
" . c #6A5504",
".. c #6A5608",
"X. c #725C04",
"o. c #615214",
"O. c #645719",
"+. c #7B6405",
"@. c #766513",
"#. c #4A5828",
"$. c #44553B",
"%. c #465939",
"&. c #526639",
"*. c #5A6939",
"=. c #606336",
"-. c #323B41",
";. c #2E4F42",
":. c #3A4545",
">. c #3B5845",
",. c #3B5E51",
"<. c #3D6450",
"1. c #454847",
"2. c #465B47",
"3. c #465548",
"4. c #555C49",
"5. c #5F5B4D",
"6. c #485B51",
"7. c #565853",
"8. c #5F5F5E",
"9. c #476449",
"0. c #54694A",
"q. c #496753",
"w. c #436658",
"e. c #4B6659",
"r. c #456B5A",
"t. c #4B6D5B",
"y. c #576A56",
"u. c #536D5B",
"i. c #4D7254",
"p. c #4D725B",
"a. c #54755A",
"s. c #6C744B",
"d. c #6B7B48",
"f. c #717D49",
"g. c #647557",
"h. c #4D6E60",
"j. c #556E62",
"k. c #4D7362",
"l. c #4D7866",
"z. c #537563",
"x. c #587662",
"c. c #5B7C64",
"v. c #587569",
"b. c #557B6A",
"n. c #5B7C6A",
"m. c #5B7F71",
"M. c #647965",
"N. c #637D6A",
"B. c #6B7673",
"V. c #856C05",
"C. c #89710B",
"Z. c #94790D",
"A. c #9A7E0D",
"S. c #748651",
"D. c #788755",
"F. c #5A8267",
"G. c #5C836C",
"H. c #5D8372",
"J. c #5D8973",
"K. c #65866C",
"L. c #7F9562",
"P. c #638572",
"I. c #6A8573",
"U. c #658A73",
"Y. c #6E8F77",
"T. c #6A8D78",
"R. c #748B79",
"E. c #74957C",
"W. c #9C800C",
"Q. c #A98706",
"!. c #A78709",
"~. c #AE8C09",
"^. c #B28F06",
"/. c #B18F08",
"(. c #B69207",
"). c #BA9507",
"_. c #BE9907",
"`. c #B8960A",
"'. c #B99711",
"]. c #B99B27",
"[. c #B3992F",
"{. c #C29D07",
"}. c #CAA407",
"|. c #C7A408",
" X c #D2AC08",
".X c #D9B408",
"XX c #D2BB1A",
"oX c #E3BE09",
"OX c #D4BE20",
"+X c #EBC50A",
"@X c #F3CE0D",
"#X c #F5D20F",
"$X c #FFD70B",
"%X c #F5D211",
"&X c #F9D512",
"*X c #D9C323",
"=X c #8B8C5D",
"-X c #8C996A",
";X c #6E8E81",
":X c #788E82",
">X c #789885",
",X c #8B9A91",
"<X c #899E93",
"1X c #A29F8F",
"2X c #8CA98F",
"3X c #94A998",
"4X c #B6AD8B",
"5X c #B5AF94",
"6X c #99B2A5",
"7X c #A6A7A7",
"8X c #A4B9A9",
"9X c #B5B3AA",
"0X c #A8BDB2",
"qX c #B5B5B5",
"wX c #ABC2B4",
"eX c #B4CABA",
"rX c #D1DFAE",
"tX c #C8D9CA",
"yX c #C7E1D1",
/* pixels */
"X   4 B.z.3XwXwX8XwX6X:X7.6X8X:X:X3X<X3.m 0Xv.m.;X<X>X;XH.6XI.2X2X,.<XeX3XwX0XeX3XtX>X3X*X&X&X&XrXyXyXwX8XtXtXeXR.6XtX,Xm eXB.6X<X3Xv.6X<XwX6X6X3X,X<X6X6XeX8XR.",
"l eX6Xv.v.x.N.I.e.w.t.n.e.e.k.7.>.,.j :Xj.h.v.H.m.H.v.U.Y.>XR.>X:XT.T.>Xm.>XE.S *X&X#X%X$X$X$X$X&X&XL.U.R.x.N.N.h.v.T.I.d U 7.U ,.6.,.e.w.6.q.q.a.u.a.Y.t.a.0.u.",
"7 Y.I.K.K.P.z.I.v.t.k.H.z.r.<.t.w.h.,.e.j.h.m.b.;XH.N.T.U.H.T.K.P.I.;X*X&X&X%X+X$X$X$X$X$X$X$X$X$X$X&X%XS.w.b.c.N.;Xe.:Xm % ;.w.k.r.p.G.n.k.u.q.a.9.q.c.u.E.e.3.",
"a.c.F.U.K.G.b.z.z.n.k.t.t.w.w.v.z.t.w.t.l.v.<.l.H.b.H.T.J.F.>X*X%X%X&X$X$X$X$X$X$X$X$X$X$X$X$X$X$X$X$X$X&X&XD.p.:XI.v.v.c 3.6.k.p.k.z.r.t.r.<.<.n.a.q.x.c.T.9.M.",
"q.;XG.H.b.K.b.t.z.h.h.z.z.k.h.h.p.z.w.u.<.r.F.z.Y.>X*X&X&X%X%X$X$X$X$X$X$X$X$X$X$X$X$X$X$X$X$X$X$X$X$X$X$X$X&X%XL.T.U.n.j.j.w.r.H.r.P.U.l.p.z.i.p.a.c.K.v.T.R.3.",
"K.q.b.H.b.n.P.H.m.v.z.w.v.k.r.w.r.z.6.z.w.w.*X#X%X%X$X$X$X&X&X$X$X$X$X$X$X$X$X$X$X$X$X$X$X$X$X$X$X$X$X$X$X$X$X$X#X%XS.0 3.6.t.b.H.P.H.b.b.G.H.l.K.I.E.c.M.c.N.2.",
"I.U.b.b.b.l.J.H.P.v.k.w.r.h.z.l.k.OX@X%X#X#X$X$X$X$X$X$X$X$X$X$X$X$X$X$X$X$X$X$X$X$X$X$X$X$X$X$X$X$X$X$X$X$X$X$X$X$X#X@X&.q.n.z.T.n.G.l.>XY.a.z.p.a.p.a.R.u.u.2.",
"E.c.G.F.w.k.k.m.m.P.l.<.,.XX%X%X#X#X$X$X$X$X$X$X$X$X$X$X$X$X$X$X$X$X$X$X$X$X$X$X$X$X$X$X$X$X$X$X$X$X$X$X$X$X$X$X$X$X$X$X@X%X-Xw.H.Y.G.<.G.G.l.a.,.c.p.a.9.u.u.N.",
";.H.J.J.l.l.r.<.m.OX%X%X@X$X$X$X$X$X$X$X$X$X$X$X$X$X$X$X$X$X$X$X$X$X$X$X$X$X$X$X$X$X$X$X$X$X$X$X$X$X$X$X$X$X$X$X$X$X$X$X$X$X#X%X&XS.F.i.U.2XG.l.c.q.G.I.I.y.9.e.",
"h H.h.r.*X%X%X%X%X#X$X$X$X$X$X$X$X$X$X$X$X$X$X$X$X$X$X$X$X$X$X$X$X$X$X$X$X$X$X$X$X$X$X$X$X$X$X$X$X$X$X$X$X$X$X$X$X$X$X$X$X$X$X$X$X#X&X-XU.E.>Xa.2Xc.a.c.g.6.x.9.",
"|.%X@X@X#X$X$X$X$X$X$X$X$X$X$X$X$X$X$X$X$X$X$X$X$X$X$X$X$X$X$X$X$X$X$X$X$X$X$X$X$X$X$X$X$X$X$X$X$X$X$X$X$X$X$X$X$X$X$X$X$X$X$X$X$X$X$X#X&XS.l.z.t.p.9.i.N.>.R.I ",
"] ..+X$X$X$X$X$X$X$X$X$X$X$X$X$X$X$X$X$X$X$X$X$X$X$X$X$X$X$X$X$X$X$X$X$X$X$X$X$X$X$X$X$X$X$X$X$X$X$X$X$X$X$X$X$X$X$X$X$X$X$X$X$X$X$X$X$X$X%X#XS.G.i.y.u.z.N.q.q.",
"[ +. .V.+X$X$X$X$X$X$X$X$X$X$X$X$X$X$X$X$X$X$X$X$X$X$X$X$X$X$X$X$X$X$X$X$X$X$X$X$X$X$X$X$X$X$X$X$X$X$X$X$X$X$X$X$X$X$X$X$X$X$X$X$X$X$X$X$X$X$X#X%XS.a.y.9.I.K.u.",
"] | | +. .oX$X$X$X$X$X$X$X$X$X$X$X$X$X$X$X$X$X$X$X$X$X$X$X$X$X$X$X$X$X$X$X$X$X$X$X$X$X$X$X$X$X$X$X$X$X$X$X$X$X$X$X$X$X$X$X$X$X$X$X$X$X$X$X$X$X$X$X#X#X*.x.K.K.y.",
"] | / | {  . .+X$X$X$X$X$X$X$X$X$X$X$X$X$X$X$X$X$X$X$X$X$X$X$X$X$X$X$X$X$X$X$X$X$X$X$X$X$X$X$X$X$X$X$X$X$X@X#X$X$X$X$X$X$X$X$X$X$X$X$X$X$X$X$X$X$X$X$X#X@XS.R.K.",
"XX+./ | { { X. . .oX$X$X$X$X$X$X$X$X$X$X$X$X$X$X$X$X$X$X$X$X$X$X$X$X$X$X$X$X$X$X$X$X$X$X$X$X$X$X$X$X$X$X$X$X$X$X$X$X$X$X$X$X$X$X$X$X$X$X$X$X$X$X$X$X$X$X$X%X%Xf.",
"O.| | / | | / | V.X.oX$X$X$X$X$X$X$X$X$X$X$X$X$X$X$X$X$X$X$X$X$X$X$X$X$X$X$X$X$X$X$X$X$X$X$X$X$X$X$X$X$X$X$X$X$X$X$X$X$X$X$X$X$X$X$X$X$X$X$X$X$X$X$X$X$X$X$X{.`.",
"] | / | / | / | { {  . .oX$X$X$X$X$X$X$X$X$X$X$X$X$X$X$X$X$X$X$X$X$X$X$X$X$X$X$X$X$X$X$X$X$X$X$X$X$X$X$X$X$X$X$X$X$X$X$X$X$X$X$X$X$X$X$X$X$X$X$X$X$X{._._._.oX{.",
"] / | | / _.+./ { { { V.X. .oX$X$X$X$X$X$X$X$X$X$X$X$X$X$X$X$X$X$X$X$X$X$X$X$X$X$X$X$X$X$X$X$X$X$X$X$X$X$X$X$X$X$X$X$X$X$X$X$X$X$X$X$X$X$X$X{._.{._.{.{.).).).).",
"_ | / | > ^ | | { { { | { !.X._.@X$X$X$X$X$X$X$X$X$X$X$X$X$X$X$X$X$X$X$X$X$X$X$X$X$X$X$X$X$X$X$X$X$X$X$X$X$X$X$X$X$X$X$X$X$X$X$X$X$X X{._._._.{.).).).).).).).).",
"( { { { * * ~ {  .{ { { { | { |  ..X$X$X$X$X$X$X$X$X$X$X$X$X$X$X$X$X$X$X$X$X$X$X$X$X$X$X$X$X$X$X$X$X$X$X$X$X$X$X$X$X$X$X$X$X}.{.{._.).).).).).).).).).).).).).).",
"a.] { { * $ ~ { { { V. .{ { { { V.X.| +X$X$X$X$X$X$X$X$X$X$X$X$X$X$X$X$X$X$X$X$X$X$X$X$X$X$X$X$X$X$X$X$X$X$X$X$X$X$X+X}._._.)..X{.).).).).).).).).).).).).{.{.).",
">.( { { / / { { { { { { { { { { | | ).+._.#X$X$X$X$X$X$X$X$X$X$X$X$X$X$X$X$X$X$X$X$X$X$X$X$X$X$X$X$X$X$X$X$X.X{._._._.}._.).)._.).).).).).).`._.).).{.{.)._.).).",
"P ( { { { { { { { { { { { { { { | / | | |  .oX$X$X$X$X$X$X$X$X$X$X$X$X$X$X$X$X$X$X$X$X$X$X$X$X$X$X$X@X}._._.).+X{.).).).).).).).).).).).).).oX{.).).).).).).).).",
";.' { { { { { { { { { { { { { { | / | | | +.X. .+X$X$X$X$X$X$X$X$X$X$X$X$X$X$X$X$X$X$X$X$X$X@X}._.{.). X{.).).).).).).).).).).).).). X{.(.)._.C.b s W.).).).).).",
":.) { { { { { { { { { { { { { { / | | / / | | }.+.{.@X$X$X$X$X$X$X$X$X$X$X$X$X$X$X$X$X}._._.{.{.{.).).).).).).).).).)._.).).)._.).).).).).).).u i d A.).).).).).",
"3._ { { { { { { { { { { { { { { | | _.+.| | |  .|  . .+X$X$X$X$X$X$X$X$X$X$X$X}.{.).).}.).).).).).).).).).).).).).).).}._.).).).).).).).).).).b i u W._.).).).).",
"3.' { { { { { { { 5.o.{ { { { { / / | / V. ./ / / / +. .| +X$X$X$X$X$X.X|._._.).}.{.).).).).).).).).).).).).).).).).).).).).).).).).).).).).).^.~.~.).).).)._._.",
"3.) { { { { { { { 5.8.5.} { { { | / | / | | | | | | | / .XV. .^._._._.).+X|.).).).).).).).).).).).).).+X|.).).).).).).).).).).).).).).).).).).).(.).).).).).).*.",
"x.' { { { { { { 5.8.8.8.8.o.{ { | | | / | / / |.+./ | /  .| | Q..X_.).).).).).).).).).).).).). X).).).{.).).).).).).).).).).).).).).).).).).).).`.).).).).).).*.",
"U O.{ { { { { { 5.8.8.8.8.8.5.} / / | | / / | | | / | | / / | Q.).).).).).).).).).).).).{.).).).).).).).).).).).).).).).).).).).).).).).).).).).).).).).).)._.&.",
">.) { { { { { { 5.8.8.a 1.8.8.8.o.| | / | | { { / | | / | | / Q.).).).).).).).).oX{.).).).).).).).).).).).).).).).).).).).).).).).).).).).).).).).).).).).).).#.",
"1.' { { { { { { 5.8.8.p = = 7.8.8.5.o.{ { { { { { * ~ { ^.V.{ Q.).).).)._.).).).).).).).).).).).).).).).).).).).).).).).).4X].).).).).).).).).).).).).).).).).S.",
"3.} { { { { { { 5.8.8.p $ $ $ f 7.8.8.o.{ { { { { * * ~ { | { ^.oX{.).).).).u 6 k A.).).).).).).).).).).(.{.).).).4X9X9X9XqX].).).).).).).).).).).).).).).).).L.",
"6.O.{ { { { { { 5.8.8.p $ $ $ $ = 7.8.o.{ { { { { * $ ! { { { A.).).).).).u i i i A.).).).).).).{.).).).).[.5X9X9XqXqXqXqXqX].4X9X].).).).).).).).).).).).).`.d.",
",.' { { { { { { 5.8.8.p $ N / * = 1.8.o.{ { { { { / / { { { | Q.).).).).).b i i @./.).).).).).).(.).4X9X9XqXqXqXqXqXqXqXqXqX9X9XqX].).).).).).).).).).).).).`.=X",
"U ] { { { { { { } 5.8.1.p ! { / = 7.8.8.o.{ { { { { { { { { { ^.).).).).)././././.).).).).).{.4X9X9XqXqXqXqXqX7X-.f f 7XqXqXqXqXqXU a a A.).).).).).).).).).).S.",
"u.] { { { { { { { } 8.1.= ~ { { / 5.8.8.8.o.{ { { { { { { { { A.).).).).).).).).).).).).).).).5XqXqXqXqX:.f f f i i i ,XqXqXqXqXqX-.i i A.).).).).).).).).).).S.",
"y.] { { { { { { { { * = $ N { { / 5.8.8.8.o.{ { { { { { { { | Q.).).).).).).).).).).).).).).).5XqXqX-.f i i i i i i Z.5XqXqXqXqXqX-.i i A.).).).).).).).).).).D.",
"0 ) { { { { { { { | * $ = ! { { { 5.8.8.8.} { { { { { { { { { ^.).).).).).).).).).).).).).4X9XqXqXqX-.i i i Z.~.'.A.(.5XqXqXqXqXqX-.i i A.).).).).).).).).).).e ",
"& ( { { { { { { { { / * $ ! { { { 5.8.8.8.p N / { { { { { { | A.).).).).).).).).).).).).5XqXqXqXqXqX-.d p Z./.{.{.{./.5XqXqXqXqXqX-.i i A.).).).).).).).).).`.- ",
"9.' { { { { { { { { { / { e ~ 5.o.5.8.8.8.p = N { { { { { { | Q.).).).).).).).).).).).).5XqXqXqXqXqX-.d p A.).(.{.A.{.5XqXqXqXqXqX-.i i A.).).).).).).).).).).s.",
"U ) { { { { { { { { { { { o.o.5.8.8.8.8.8.p $ ! { { { { { { { ^.).).).).).).).).).).).).5XqXqXqXqXqX-.d i Z.{.(.{.{.^.4XqXqXqXqXqX-.d d A.).).).).).).).).)._.-X",
":.G ) { { { { { { { { { { O.5.8.8.8.8.8.8.p = ! { { { { { { { A.).).).).).).).).).).).).5XqXqXqXqXqX-.d d Z./.{.{.^.4XqXqXqXqXqXqX-.i d A.).).).).).).).).).`.s.",
"4.x ) { { { { { { { { { } O.5.8.8.8.8.8.8.p $ N { { { { { { | Q.).).).).).).).).).).).).5XqXqXqXqXqX-.d d A.{.{.4XqXqXqXqXqXqX1.f i i d A.).).).).).(.).).).).f.",
"M G ) { { { { { { { { { } [ 5.8.8.p p 7.8.p $ ~ { { { { { { { Q.).).).).).).).).).).).).5XqXqXqXqXqX-.p p A.{.A.5XqXqXB.f f f d i i i O.~.).).).).).).).).).).f.",
"9.$._ { { { { { { { { { } } 5.8.8.p $ $ 7.p $ ~ { { { { { { | Q.).).).).).).).).).).).).5XqXqX-.f f i i p A.^.{.5XqXqX-.d d d d o.!.~.(.).).).).).).).).).).(.=X",
"$.g.o.{ { { { { { { { { { { =.8.8.p $ $ = $ $ N { { { { { {  .A.).).).).).).).).).).).).'.'.'.b i i i i u 1X9X9XqXqXqX-.d p A.A.(.).).).).).).).).).).).).).).=X",
"0.g...{ { { { { { { { { { { { N 7.p $ e $ $ $ N | { { { { { { ^.).).).).).).).).).).).).).).{.u i V.A.A./.5XqXqXqXqXqX-.i i Z.).).).).).).).).).).).).).).).).=X",
"2.0.] { { { { { { { { { { { / N * $ $ N / * $ ~ { { { { { { { A.).).).).).).).).).).).).).).{.A.A.{.{.{.).5XqXqXqXqXqX-.i i Z.).).).).).).).).).).).).).).).).S.",
"9.0.) { { { { { { { { { { { 5.n = $ = ! { / e ~ { { { { { { { ^.).).).).).).).).).).).).).).).)./.{.{.{./.5XqXqXqXqXqX-.d d A.{.).).).).).).).).).).).).).).).s.",
"g.%.) { { { { { { { { { { { 5.8.8.p $ ! { { / { { { { { { { { ^.).).).).).).).).).).).).).).).).{.{.{.A.'.5XqXqX1.f f p d p Z.).).).).).).).).).).).).).).).=.$.",
"g.3.) { { { { { { { { { { { 5.8.8.' * N { { { { { { { { { { | A.).).).).).).).).).).).).).).).)./.).).).).{.{.'.M d p f f A.(.{.).).).).).).).).).).).).).).s.2.",
"2.2.] { { * e / { { { { { { 5.8.5.5./ / { { { { { { { { { {  .A.).).).).).).).).).).).).).).).).).).).).'./.).).b B.7XA./.(.(.(.).).).).).).).).).).).).).).f.M.",
"4.G ] { { * $ ~ { { { { { { 5.8.8.1./ { { { { { { { { { { { { ^.).).).).).).).).).).).).).).).).).).).).(.).4X9X7XqXqX].{.{.{./.).).).).).).).).).).).).).).f.R.",
"$.0./ { { / * ~ { { { { { | } } 5.1.p ! { { { { { { { { { { { A.).).).).).).).).).).).).).).).).).).).).).4XqXqXqXqXqX1.p O.A.).).).).).).).).).).).).).).).&.y.",
". E ) { { { / / { { { { { { { { * M = ~ { { { { { { { { { { | Q.).).).).).).).).).).).).).).).).).).).).'.5XqXqXqXqXqX-.i [ A.{.).).).).).).).).).).).).).).&.9.",
">.E ( { { { | { { { { { { { { { * $ $ ~ { { { { { { { { { { | ^.).).).).).).).).).).).).).).).).).).).).(.5XqXqXqXqX7X-.i [ A.{.).).).).).).).).).).).).).).&.3.",
"% S t ( { { { { { { { { { { { { ~ * $ e / { { { { { { { { { { A.).).).).).).).).).).).).).).).).).).).).).5XqXqXqX1.p d p O.A.{.).).).).).).).).o.Q.).).).).s.  ",
"  k 3 0 ^ | | / { { { { { { { { { / * e / { { { { { { { { { | Q.).).).).).).).).).).).).).).).).).).).).).4X[.{.M p d d d ..A.{.).).).).).).u k a A.).).).).#.. ",
"6.I.y.2.i.) { | { { { { { { { { { { / ! / { { { { { { { { { { ^.).).).).).).).).).).).).).).).).).).).).).'./.).u p @.A.A.{.A.{.).).).).).`.u d i A.).).).).1X1 ",
"T v g y V q 8 ^ { { { { { { { { { { { { { { { { { { { { { { { A.).).).).).).).).).).).).).).).).).).).).).).).).).A.^.).{.{.{.{.).).).).).(.A.Q.~.(.).).).).D.Q ",
"5 L >.D V q D D ) { { { { { { { { X.| { { { { { { { { { { {  .A.).).).).).).).).).).).).).).).).).).).).).).).).{.(.).).).)./.{.).).).).).).(.).).).).).).).&.M.",
"< A D h V P P P S ( { { { { { { { { { { { { { { { { { { { | | A.).).).).).).).).).).).).).).).).).).).).).).).).{.(.).).)./.{.^.).).).).).).).).).).).).).).%.>.",
"l l g z h < < V h h A ) { { { { { { { { { { { { { { { { { { { Q.).).).).).).).).).).).).).).).).).).).).).).).).).).).).).).).).).).).).).).).).).).).).).).#.g ",
"j P Z A w g V 9 w 7 z : ^ { { { { { { { { { { { { { { { { { { Q.).).).).).).).).).).).).).).).).).).).).).).).).).).).).).).).).).).).).).).).).).).).).*.9.>.v ",
"q V Y q 7 D D h w q w 7 C ) { { { { { { { { { { { | { { { { { Q.).).).).).).).).).).).).).).).).).).).).).).).).).).).).).).).).).).).).).).).).#.K %.0.0.T T I ",
"w 7 7 C C C C C D V w 7 R K K ) { { { { { { { { { * ~ { { { { Q.).).).).).).).).).).).).).).).).).Q.).).).).).).).).).).).).).).).).).).).).*.F T &.T Q W R Z 6 ",
"w 8 y w 7 C K C F F T R H T E E ) { { { { { { { { * + ~ { { { Q.).).).).).).).(.@.Q.).).).).).).).).).).).).).).).).).).).).`.`.).).#.Q %.W W W L Q i.R F 2.w l ",
"k H 8 2 w 0 Z %.y %.H y y G $.H H ) { | { { { { { * $ ~ { { { Q.).).).).).` k s a A.).).).).).).).).).).).).).).).).).).).).).B C Z D S V W W 9.L I 2.Q R T t I ",
"> %.x R 8 E K R H C x 8 S Z Z R Z %.R ^ { { { { { / / / { { { Q.).).).).).u p i i A.).).).).).).).).).).).).).).).).).`.u , 8 U Z E E I D D D Y Y L T 9.F 9.E w ",
"> G H R R T 7 C R D 7 w C y h Q F y : t ~ | { { { { { { { { { Q.).).).).).u i Z./.).).).).).).).).).).).).).).).).#.8 x 4 2 l w T C E I >.>.P J 9 < g 7 < w z 0 ",
"8 Z y I C w L Q F D 7 C R 8 C 7 : 2 ; c , ^ { | { { { { { { { Q.).).).).).(.^.(.).).).).).).).).).).).).).).` 7 z g < 5 5 c q z y x 7 w C T 9.T T C w 9.9 w 5 O ",
"> y S C S U H C T C Y L Z F w q 0 ; A @ O 8 w ~ { { { { { { { Q.).).).).).A.^.).).).).).).).).).).).).r F T 9 1 5 9 h 6 s ;.Y L Z Z C C Z 2 : J T D : T I Q v . ",
"5 ; 1 5 h v v Z F 8 q W C C 7 : L 3 I v @ 0 < 8 ^ { { { { { { Q.).).).).).(.).).).).).).).).).).B , y D h A 5 @ h s % & h A C y S Q S S x z D h 7 F w w Z F S . ",
"< ; 1 < g w q h w Z w y C H T T Z H z k o 1 > 2 8 / { { { { { Q.).).).).).).).).).).).)._.#.H H D : V P L 5 6 6 @ % % % @ g P >.Q E I R x 0 9 h w T y 7 0 E L $.",
"6 1 2 < h h 7 2 7 8 8 , x R z I 8 z 2 6 # 3 h w R %.R ( { { { Q.).).).).).).).).).).N 1 , I I C Y D g < < 5 @ < v s   @ 1.h A L L H F z Z S g c J F I 0 8 C z o ",
"Z 3 8 Z 9.8 I 9 w w : < ; 2 x x C 2 1 G 4 t Z R C x R $.( | { Q.).).).).).).).e t t 3 O 1 2 7 S I R Z 8 2 : 1 v 1 @ c 1 l ; 5 0 w S S A z l S q D D D D 8 7 ; 8 ",
"6 6 t U l H O 0 2 w 9 2 2 1 @ @ @ % 1 4 + & 3 l > > H G H ) { Q._.).)._.` > >   & k @ 6 l @ 0 t l 1 > 3 4 > o # * . & O 3.l + 1 l v s 1 1 4 1 8 h h c v E @ @ c ",
"# 1 O s 6 @ 4 4 1 1 o 1 6 @ o # O . X         .   . .   o & 6 W._.r t , o   .     o O   . o . o k o   . o +   . X           O X O . @ @ o o o o U @ c 1 t 6 1 o "
};
