/* XPM */
static char *result[] = {
/* columns rows colors chars-per-pixel */
"80 80 247 2 ",
"   c #030303",
".  c #020B03",
"X  c #040609",
"o  c #060A0D",
"O  c #080D09",
"+  c #051405",
"@  c #08130A",
"#  c #0B1B0D",
"$  c #111C0D",
"%  c #050D13",
"&  c #070F18",
"*  c #081618",
"=  c #09151D",
"-  c #151C15",
";  c #0A260C",
":  c #15250C",
">  c #0C2815",
",  c #132314",
"<  c #132B14",
"1  c #142C1B",
"2  c #182818",
"3  c #1B2C1C",
"4  c #143215",
"5  c #1A3316",
"6  c #14371C",
"7  c #1B341C",
"8  c #1B3A1D",
"9  c #222C1C",
"0  c #22341E",
"q  c #233A1D",
"w  c #0A1A23",
"e  c #081824",
"r  c #0C1D2A",
"t  c #0D1E2D",
"y  c #0C212A",
"u  c #1A2B23",
"i  c #11242C",
"p  c #1B3825",
"a  c #0C2433",
"s  c #0C2638",
"d  c #0D2B3C",
"f  c #112532",
"g  c #122935",
"h  c #162938",
"j  c #132C3B",
"k  c #15323D",
"l  c #19343C",
"z  c #222E23",
"x  c #233323",
"c  c #233C24",
"v  c #283B29",
"b  c #313E2D",
"n  c #273D32",
"m  c #1D4127",
"M  c #1C4434",
"N  c #254224",
"B  c #2A4326",
"V  c #24422B",
"C  c #2B442B",
"Z  c #26492B",
"A  c #2C4A2D",
"S  c #33452B",
"D  c #344A2D",
"F  c #2F512F",
"G  c #32502F",
"H  c #294935",
"J  c #334C33",
"K  c #364A37",
"L  c #2D5238",
"P  c #345235",
"I  c #3B5335",
"U  c #34533C",
"Y  c #3B543C",
"T  c #3A593A",
"R  c #424E3C",
"E  c #44553B",
"W  c #435B3D",
"Q  c #48623C",
"!  c #0D2D46",
"~  c #132D43",
"^  c #132E48",
"/  c #0E3349",
"(  c #143245",
")  c #193444",
"_  c #14354B",
"`  c #193748",
"'  c #153A4D",
"]  c #1A3B4C",
"[  c #0A2E55",
"{  c #0E3755",
"}  c #133652",
"|  c #183454",
" . c #153B53",
".. c #1A3D53",
"X. c #143D5B",
"o. c #1A3E5A",
"O. c #213C50",
"+. c #123E63",
"@. c #1C404F",
"#. c #1B4254",
"$. c #15425C",
"%. c #1B465B",
"&. c #1B435C",
"*. c #324F42",
"=. c #395945",
"-. c #244456",
";. c #21455C",
":. c #22495D",
">. c #3B5E51",
",. c #3D6149",
"<. c #3D6654",
"1. c #154463",
"2. c #1B4563",
"3. c #1C4A64",
"4. c #1B4669",
"5. c #15486A",
"6. c #1C4B6B",
"7. c #1C516B",
"8. c #0F4670",
"9. c #174B75",
"0. c #1B4D72",
"q. c #1C5274",
"w. c #1C5776",
"e. c #1C537A",
"r. c #204661",
"t. c #224B64",
"y. c #2B4C63",
"u. c #214D6B",
"i. c #275268",
"p. c #23516C",
"a. c #274F73",
"s. c #235273",
"d. c #295573",
"f. c #245B75",
"g. c #2A5A74",
"h. c #22547A",
"j. c #245A7B",
"k. c #2A5B7B",
"l. c #29617C",
"z. c #32657E",
"x. c #465B46",
"c. c #465548",
"v. c #435D4A",
"b. c #505B4F",
"n. c #465E51",
"m. c #44644C",
"M. c #496548",
"N. c #45694D",
"B. c #55694B",
"V. c #56724D",
"C. c #446453",
"Z. c #486753",
"A. c #4C6B54",
"S. c #436658",
"D. c #4B6659",
"F. c #456B5A",
"G. c #4B6D5B",
"H. c #556A54",
"J. c #536D5B",
"K. c #4B7259",
"L. c #53745B",
"P. c #597558",
"I. c #54795D",
"U. c #657959",
"Y. c #4D6E60",
"T. c #556E62",
"R. c #4D7362",
"E. c #4D7866",
"W. c #537563",
"Q. c #5B7462",
"!. c #547A63",
"~. c #5B7C64",
"^. c #587569",
"/. c #557B6A",
"(. c #5B7C6A",
"). c #5B7F71",
"_. c #647B67",
"`. c #6B7C73",
"'. c #6C825E",
"]. c #5A8267",
"[. c #5C836C",
"{. c #5D8572",
"}. c #678569",
"|. c #648A6D",
" X c #738B6B",
".X c #638572",
"XX c #658A73",
"oX c #6B8A76",
"OX c #658E7A",
"+X c #748B79",
"@X c #6A9175",
"#X c #6C927B",
"$X c #75957B",
"%X c #819478",
"&X c #1B5A86",
"*X c #1C5B84",
"=X c #225C82",
"-X c #265B85",
";X c #325A84",
":X c #1C638D",
">X c #1D6794",
",X c #286587",
"<X c #23638B",
"1X c #2A638B",
"2X c #326887",
"3X c #35708B",
"4X c #256895",
"5X c #2A6B94",
"6X c #326B92",
"7X c #287199",
"8X c #2B729C",
"9X c #367497",
"0X c #1C74AB",
"qX c #2977A7",
"wX c #347AA5",
"eX c #2A7BB3",
"rX c #487491",
"tX c #417DA3",
"yX c #3782AA",
"uX c #2983B7",
"iX c #3384B4",
"pX c #3A91B9",
"aX c #6E8E81",
"sX c #788E82",
"dX c #6C9485",
"fX c #779985",
"gX c #7BA288",
"hX c #7FA791",
"jX c #4E8CAF",
"kX c #6996B0",
"lX c #74A3BF",
"zX c #2D8DC3",
"xX c #53A4CE",
"cX c #51A6D0",
"vX c #6BABCE",
"bX c #859889",
"nX c #889C91",
"mX c #84A38B",
"MX c #8FAB97",
"NX c #8CB398",
"BX c #8EA1AD",
"VX c #99B3A4",
"CX c #A6BBAD",
"ZX c #B0C6B7",
"AX c #95BBCC",
"SX c #A3D0DA",
"DX c #C8DDCE",
/* pixels */
"O   2 `.W.MXCXZXCXCXVXsXb.VXCXsXsXMXnXc.H CX^.).aXnXfXaX{.VXoXmXMX>.bXZXMXCXCXDXMXDXfXMXbXCXCXZXDXDXDXZXCXDXDXZX+XVXZXnXb ZX`.VXnXMX^.VXnXZXVXVXMXbXbXCXVXZXCX+X",
"x ZXVX^.^.Q.`.oXD.S.Y.(.D.D.Y.b.=.>.l sXT.Y.^.).)..X^.XX#XfX+XfXsX+XoXfX).fX$Xn (.(.oXfXfXfXdXNXaXfXdX{.+XQ._._.Y.^.oXoXh K b.c.>.n.>.D.n.n.H.Z.L.J.T.+XG.P.B.J.",
"5 oXoX_._..XW.oX(.G.R.).W.F.S.D.S.Y.>.D.T.Y.)./.aX{._.OX.X.XoX|.{.oX$XoXfXVXfX@ [.hXhX#XbXaX{.E.XXgXaXE.W.D.(.~._.aXD.sXn * *.n.R.F.K.[.).R.J.G.I.m.Z.~.L.$XD.c.",
"I.~.].XX|.[./.W.W.(.R.G.G.S.S.^.W.Y.C.G.E.^.<.E.{.(..XOX.X].fX$XfXoXfX$XhX#X.XMXgXhXfXhXdX{.[.hXOX#XOXE.XX.X(.K.sXoX^.^.v c.n.Y.K.R.W.F.G.F.>.,.~.I.A.W.~.oXM._.",
"N.fX[..X/..X/.G.W.Y.Y.W.W.R.Y.Y.Y.W.S.J.,.F./.!.#XfXdXOX#X#XOXfXfXfXmXMX#XNX$XVXZ VXgX#XOX[.{.fXOXoX|.XX_.XX}./.{.#XXX(.T.T.D.S.).S..XXXW.G.R.K.G.P.~._.(.XX+Xc.",
"}.C./.{./.(..X{.(.^.W.S.^.R.F.S.F.W.n.T.S.F.(.fXXXfXfX#X.X#XOXoXdXnXsXfX@XfXmXmXL #XgXdX[.|.fXfXOXQ.|.K..X(.oXF.{.[.Y.u c.n.G./.{..X{././.{.{.!.|.XX$X~._.~._.n.",
".X.X/././.E.{.{..X/.R.S.F.Y.W.E.R.R.G.aX^.!.oX(.{.fXgX#X[.#XOX#XXXfX$XoXhXNXhXNX/.XXXX{./.|.MXgX.X~.[.F..XW.K.[.#X/.(.=.K F.(.W.aX/.[.I.fX#XK.W.G.I.L.!.+XJ.J.v.",
"$X~.[.].S.R.R.).)..XR.S.>.S.S.>.R.<.=.#XoXL.oX!.).oX#X.X[.fX@XdXoX$XOXdXVXhXNXhXgX$X{.].[.OX$X$X$XgX$X[.C._.#X~.OXK.=.> v +X+XS.{.oX[.S.[.[.!.L.=.(.K.P.v.J.J._.",
"*.{.{.{.E.E.F.<.).E.(./.W.R.>.S..X(./.oXA.(.W.I.(.,.K.{.XXfX.XOX.X.X$XNXNXNXhXgXM #X#XdXXXZ.].|.mX$X$XoXOXI.L.|.|.R./.V v.Q.^.fX].~.].K.XXmX(.!.~.F.[.XX}.P.m.D.",
"p {.R.F.E.{.[.F.F.Y.{.]./.F./.(.C.S.G.Z.!.~.K.~.K.N.N.[.|.OXOXXXOX$XbX$X$XgXgXgX$XgX#XgXOXS.I.}.VX|.].].K.XXoX}.G.].S.+Xp Z.W.J.[.|.NX@XOXgXfXI.mXQ.P.~._.n.Q.m.",
"* Y.<.F.E.E.E.{.K.).E.].#X@XK.R.=.G.D.G.W.L.J.|.dX|.(.{.].].+XQ.fXoXmXgXNXNXNXmXmXgXgXhXgXNXI.W.gXNX[.!.,.F.~.|.I.F.Z Q.v C._.(.<.].OX@XmXK.~.W.K.L.m.H._.=.+XJ ",
"=.>.<.<.<.E.{.<./.[.!.!.[./.!.[.C.S.D.T.S..XP.K.$X$XsX{.fXdXR.T.W.gXgXfX$XgXfX].gXNXhXhX|.OX#X.XXX@X[.].K.I.|.[.J.*.!..Xn.S._.!.].].].@X[.|.!.~.[.V.H.J.W._.A.b.",
"^.).Y.F.E.{.{.E.[.E.F.Y.!.K.W.W.G.=.v.D.J.K.}.L.oX|.!.O.-.] 7.3.&.O.-.;.r.#.u.r.%.:.&.} 1.~ h r l (.gXL.(.I.F.I.K.<.C.c.=.C.].NX$X@X{.@XXX|.fX[.[.J.Q.J.m.}.XXJ.",
"S.W.{.aXE.R.E.<.<.F.S.Y.S.R.C.F.W.W.m.(.J.XX X.X` l ` #...` q.*Xq.O.&.0.&Xe.t.d. .2.o.[ | t t ! i ] ..1._ ] ,.K.A.*.N.(.*.L.}.@X$XF.].].fXfXmX$X$XP.H.=.Q.|.|.H.",
"Y.S.E.{.F.<.R.<.<.<.>.*.S.<.^.K.L.G.W.J.Z._...-.k ( ] y.#.' X.5.0.6.r.h.h.2.&.r.u.2.o.} y.r ! +.[ o.+.8.k.5.1.&.#.L =.m.L =.|.].|.~.!.[.[.I.$XoXQ.M.J.P.v.P.#X}.",
">.S.F.Y.R.>.Y.>.Y.E.=.=.^.=.G..X!.@XI.C.-.~ ` ..:.) #.AXo.( | 0.o.o.r.-.3.:.jXa.%. .&.} O.j ~ [ [ ! [ rX6X1.' &.@.` l m.,.V.].|.#X|.gXL.N.@XW.Z.H.m.A.v.I.H._.H.",
"E.=.<.<.>.S.>.G.R.S.>.W.(.S.S.>.!.~.) O.o._ j _ 4.1.q.g.h.1.` | ;.| ;.t.;.#.&.3.6.&.] X.~ { } } ~ rX( h.5.} 6.| ` ` s g i P.Z.|.}.N.#X|.[.|.W.S.Q.=.M.m.H.Q.I.L.",
"E.>.=.>.>.*.n.G.Y.Y.=.S.F.G.W.F.S. .:.&.r.;X1.;.-Xj.1X#.2X4.r.e.r.&.O.u.u.t.u.#... .o.) } [ ~ ^ ! 2.X.&.2.p.&.r.o._ _ k ..l [.W.~.~.}.$X@XXXJ.J.S >.=.=.N.Z.A.U ",
"Y.n.>.D.*.*.=.<.>.S.n.L W.Y.D.@.p._ } X.1.2.4.2.0.2.o.e.h.q.2.&.r.vX2.p.r.r.3.#.y.| o.` rX| ~ ( ! s.6X6.u._  .p.r...) ) ( 9.` C.=.=.K.H._.M.Y c.S *.b.T m.M._.Z.",
"*.*.. . * u u u n n n # 2 x , { 1.0.o.*X>Xu.u.:.3.4.4.s.6.<X1Xs.u.z.h.2.d.t.3.1.2.#. .r...` ) ) [ 0.2.2.| 1._ $.g.o.` k ` q.( j K v 9 # # z - 2 b x @ p p - # , ",
"n J.D.^.Z.nX+XsXD.n._.sXfX+Xk.9.&X&X8.e.,X2.s.&...;.;.h.e.s.*X2Xr.u.4.4.r.p.}  .&.o.#.o.` ) ) &.2.s.$.&. .2.5.$.2.&.%.#.@.9.' ( -._.b.MXbX+X+XCXsX`.`.A.@X}.+X#X",
"W.K.>.<.C.,.m.G.S.>.v.<.n.7.*X<X=XiX>X8X>XqX&Xl.u.;.3.u.6.;.-Xj.0.o.u.s.$.&. .#.&.&.$.( k k ] k.*X2.o.;.1.0.4.$.1.%.t.%.%.%.3.( 1.&.M.c.H.H.T =.=.x.Z.,.!.I.Q.oX",
"=.n Z ,.F.J.^.K.S.>.S.G.-Xq.j.<X0.6.5X1XjXiX8X-X=Xh.r.u.r.u.0.t.3.2.&.2.&.&.t. .;.6.0.t.j ( ` j.0.o.2._ $.q.s.0.kXh.%.%.7.$.3.3...~ O.J.H.Z.M.m.A.V.I.V.I.L.|.L.",
"H H >.A.N.G.S.C.S.C.G.G.f.&X4X&Xs.6.=XcX>XpXeX<Xs.s.4.2.u.vX2.] 4.1.| o. . .] ..$.s.4.1.j g ( g.9.6.2.j &.X.+.;Xh.0.5.i.SX5.7.' ) j h %.x.M.m.A.=.x.M.K.P.}.m.L.",
"*.*.=.Y.A.L.v.J.G.=.C.yXj.4Xj.5X6.0.4XqX0XuXuXw.6.p.3.p.u.u.o...g.] ` ..] ..) ) ) ..q.2...g g ' o.6.&._ ^ o.&.a.&.u.;.#.t.1.%. .' $.' f.H.T Z.A.v.v.M.m.M.m.A.K.",
"*.L G.=.Q.P.A.A.A.P.A.7.g.8X<XtX,X=XjXzXuXzXuX8X<Xs.3.g.s.h.4.3.4.u.4.3.&.3.1.&.` ) X.3.7.! g ) h.} 1.( ) ..2.4.4.t.] #.#.$.7.7.$.5./ #.t.P.J.M.L.J.*.H >.x.m.T ",
"c.x.J C.N.C.L.M.I.[.6.p.<XyXj.>X>X9.>X7X0XcXuXuX4X4.0.s.k.j.&.&.&..... .( o.s.&.$. .X. .2.' k j ....s._ ( ..r.u.2.-.&.-.2Xt.w.w.9X%.3.) z. .M.V.N.M.V.F.T I N.K ",
"c.=.v.*.A.N.~.$X~.A.6.<X>Xf.1.q.e.h.iX>X0X7XuXeXj.4.u.=X3.4.3.2.3.2.2.' ' ` &.| / ) ' ..&.$.k g / _ X.s.' &.h.+.d.....%.f.7.t.:Xe.#.] ` y.| 2.P =.x.Z.v.H Y v.A ",
"c.*.P.A.Q.I.P.I.I.P.&X=Xh.p.g.%.5.0.5X:X0XvX0XcX4X=X9Xp.s.q.X.' ( j g ) j ) j k k j _ ..) ' ( z.! ( ..9.o.u.k.kXt...&.&.#.:.%.w.7.%.%.' ] '  .P.x.M.m.A.A.m.=.m.",
"_.c.*.H.Q.L.~.A.m.>Xj.2Xs.6.%.d.kX&.,Xe.pXeXuXzXvXxX5X5X6.$.' ( a ~ ) j g a a a a ` j .._ k 3.) k ( ) o.&.2.r.y.u.u.u.&.%.p.w.*X6.7.] ) ] &.5.r.|.M.=.I.m.T A.N.",
"J oXT.}.H.b.H.c.m.<Xq.1Xf.3.$.#.-.` 3.h.iXuXuXuX0X9Xq.wXX.X.d g s d f i r r w w r r j j o.'  ._ j ;.a )  .2.u.r.-Xs.t.-.3.7.f.f.t.7.;.' ] ..9.q.M.N.A.A.|.,.V.,.",
"=.=.M.A.=.I.v.D.n.jX,X=X6.p. .( k ) 2.<X7XuXvX0X5X,Xw.3.$.~ ' ~ g a h = = * & % = w e a j j ) $.~  .g ` rX..u.4.jX-X9Xw.%.i.l.7.7.0.2X&.....w.5.H.N.T M.N.P.M.P ",
"v.=.N.N.P.|.~.P._.6X6.j.2.` ` ]  . .&X:XiXeX8Xw.j.<X0.1.j j ( d i r * * & % % X % & = r a i j ..d j a a ....&.2.1X<X8Xa.o.r.t.p.<Xl.f.:.#.$.p.1.@.].@XV.|.'.].'.",
"=.U I.C.A.m.=.L _.zX5X5X2X%.t.kX5.5.-XjX<X<X:X&X1X0.4. .g _ a r w % o o X X % X X X o * e r a j } f ~ i _ o.| u.5X6X5Xk.t.u.t.l.,Xf.w.l.%.#.%.i.3.P.V.$X}.'.'.@X",
"Z._.~.L.A.U N.m.J.eX4XjXf.3.$.6. .$.6.0.&X>X*X<Xe.5.X.) _ s i = % % o X X   X X X X X % * i a h 2.j ~ h o.) r.j.5XwX7X-Xw.7Xg.l.l.3X3Xl.:.7.g.@.i.'. X].I.}.B.P.",
"=.=.=.~.U M.=.A.yXq.:XkXq.&./ &.-Xf.&.q.%.*Xf.&X4.1.o._ ' r e = = % X                 o % r a ~ j h ~ ~ ' ` u.7.5X6X8X:X:X4X5X2Xl.3X2X3X3.i.:.:.@.-.'.'.U.}.V.$X",
"=.C.C.Z.Y Z.*.H.qX&X>X4X5. .%.q.e.j.&.3.] 2.7.6.2...#.) f w w e o o             X     X % e t d s h ( ' ~ ' p.4X4XwXpXzX7XuX7X6X3Xl.l.p.p.3.%.#.-.;. X}.P.M.I ~.",
"J.n.A.M.K M.W *.xX0X&XxX,X$.$.#.$.&...#.' &.3.1.3._ 4.( y = = * % o           X         X & e a f a ~ 0.} $.6.<XeXjXyX0XjXpX9X,XqX3X,X7.%.%.i.3. .;.M.B.Q V.U.U.",
"H.Z.m.=.K A b H.eX&X>XqX>XjXi.' _ ..) ( o.5.w.3.] #. ._ = = e % o X                   X o % e r f g d ..5.6.0.*XqXiXqXeX7XiXqX7XwX,X2Xi.f.#.3.3...&.H.b.B.x.x. X",
"0 b =.H x x v x e.>X&X8X7X7X' #.O.( ' #.;.3.<X3.#.p.! g g e e % X     X                 X % e e r r ! ~ u.h.j.4XeXzXcX4XqXuX9X7X9X2X2Xg.i.f.:X$.+.-..   O : : $ ",
"- v c.c.c.%XbX%X| >XlXzXvX>Xy.] ' #.1.r.3.$.,X%.#.#. .i w = * * o   X                   X & = e w a ~ ' $.=X<X<XcXuXzX7XvX8XyX2Xl.3X5Xf.f.l.1.1.#.-.ZXZXmX`.b.  ",
"m.c.H.B.H.b b b.+.qXAXeX>X0.p.d.%.%.t.g.p.f.2.&.` ' ' a w = = % % X               X     % * e e w y ~ _ 0.9X4XqXeXeX7Xl.4X<X,Xz.l.z.,Xw.f.f.7.%.-.v %XU.H. X%XM.",
"K =.K S S R b.D.-X-X9X5X1Xo.;Xp.j.i.s.g.i.7.i.2.:.&.;.f f = y % % o   X               X % & * a e g ( _ jX5X=XwXwX5Xw.*X4Xf.l.,X5X7XpX7X3X,Xf.7.@.-.U.'.U.I.J.mX",
"K b K 9 B R R K h.^ 0.h.6Xa.d.-Xj.p.t.:.p.p.f.s.t.$.` j f = y % & % X             X   o % % * i j g { | 7XjXj.1XeX5Xf.h.l.f.,XAXpXiXpXuX5X,X5X*X' ` V.'.U.P.U.U.",
"b.v S W E W B.S u.&.r.u.s.1X,Xf.g.:.g.:.t.f.-Xi.....' ~ h = g = % % X X X         X o X % = = e a / ( wX6X=Xe.cX4Xh.*Xf.7.q.f.3X7XyX7X7Xl.l.,X<Xw._.I '.U.}.M.U.",
"b S E M.E I D I &. .2.e.t.wX5Xg.6.s.k.r.2.,Xk.p...#.' ! g = a w & & % % o X % X X   X o % = = d g { tXq.-X4.4.qX8Xk.%.t.5X6.7.,XpX7X7XuXqXf.yX8Xt.$XmX$XH.M.bXU.",
"b.R W I R K E K 1.6.g.-.d.1X,X%.:.:.y.%.p.j.j.w.] ] ..1.i w r ) = & % % & % o o % % = = = w f a ) q.g.8Xh.2.&XqX8X,X@.3.p.w.l.<X7XpXuXpX7X,Xj.j.d.}.B.E R x.B.bX",
"E U.B.S W 0 S *.,Xs.h.g.p.k.d.k.O.#.#.r.%.,Xe.l.;...;.z.f i s a r r = & & & % o & & * = y a s 1.1.q.&X-XyX*X7X<Xe.h.1.3.f.f.l.l.5XyX8XyXyX,X,Xf.i.U.W B.x.%X_. X",
"B.U.H.B.R B H *.&Xk.kXh.l.z.q.g.y.3.#.t. .s.h.h.;.u.r.&.d j ~ g r _ e e w e = e f ~ s s ! ..X.1.j.h.4X<X4X&X&Xo.X.5.tX5X-X-XqX4XqX7XwXiX>Xl.=Xf.M.I.P.x.c.H. X%X",
"Q B.E S b B C p u.u.y.;.:.y.,X%.q.i.&.jX` f.2.0.q.3.4...&.' d ( d a t r r y w e r a s _ ' $.2.X.e.&Xj.<XjX9.+.| X.^ -X6.4X4X-X,X8XeXwX8X5X4X<Xf.U.P.K P.U.b.x.U.",
"Q Q S E K D V p 6...:.-.;.O.h.;.' 1.2.t.] ] o.u.e.s.q.o. .( a ..X.d d a a a a r f a ! ' 1.2.4.1.6.e.1X1X-X+.0.| } ! o.s.jXeXu.k.wXuXyXyX,X<Xl.w.V.Y K H.U.%X X_.",
"U.E E R P q B H M ] O.) l ` %...{ X.( y.k @.X.e.3.2.r.2.2. .k _ / } d ! d ( ~ s ) d j _  .o. .2.4.4.h.j.-Xe.t.o.o.~ ( u.p.-X&X5X7XwXqX5X&Xp.f.U U.B.b.B.x.b.Y R ",
"U.c.I x.W E I 8 T _ j g h f g  .X.) ) ~ j ;.2.6.s.X.o.2._ 1.' d d / / s ( _ _ 2.1.z.r.o.1.q.q.6Xj.s.h.6.z.&.2.+.3._ ) @.i.0.5X,X3XSXiX6X,Xl.p.P B._.U.U.J.+XB.b.",
"Q x.c.B 7 8 N c J ) h h i a g k o.g j j ) | ` 4.&X=X2.3...5.' o.( .._ s ( / X.4.[ 2.X.X.X.5.h.0.&.2.2.4.=Xs.&X9.2. . .' 5XrXd.t.6XiX8X,Xj.j.g.m.L m.M.M.U. XP.}.",
"b.S B.D I V B B < H j f g i y a ( d ~ ) ^ 2.u.u.9.4.<X2.1.9.' | ' ( 1.p.! O.| X.k.2.+.6.q.;X=Xs.1.o._ | 0.0.&X9.2X2.%.3.&X8.s.l.5XuX2Xw.t.z.E H.Z A.N.x.M.M.U.@X",
"E B.S D W T x.M.M.V _ l i a y i t g g _ o.1.1.5.e.h.4X<Xe.=X6._ $._ '  .1.( j | +.;XX.2.| o.i.r.` l k ` o.h.jX6.X.#.1.5.%.&.h.=XkX7XyX,X2XqXM.K J J.=.P.V.Y x.B.",
". Y I I M.B A Q N.Q H  .rXt t = r ! ~ _ X. .q.p.a.5XqX:X*X#.4.9.2.q.| _ _ 2X} h.h.&.6.X. .} ' _ %.` ( ]  .7.7.q.<Xp.7.6.2.&.j.<X5XwX<X5X3XM.W Q Y M.P.B M.P.x.M.",
"=.Y Z P M.T A T M.T ,.( ~ r i ) i ( d &.g.' ..;.%.4.j.e.$.&.s.q.e.q.e.j. .} _ ..&.2.4._  .1. .1.$.` k ( ' 9.j.9.q.%.1.1.$.s.,X=X=X4X-X;X2X=.I M.B._.T H.M.Y U c.",
"# C x B 8 A B C p v J p _ s r f r d ~ | &.| _ ;.u.3.s.j...3.z.&.h.e.1Xk.k.6X' -.j ) )  .! ..kX5.#.( k k ) $.7.$.2.$.p.#.3.p.l.j.s.9Xs.d.Y v.P.H.P.M.M.E P.P.H.. ",
"  z 2 7 3 q J c v x x 3 c.d r a ! _ } X.| 3...3.kXr.f...r.3.s.4.j.1.<X9Xq._ .. .~ ) ..y.~ ) 6.{ ` ( k k d  .3.t.6.&.&.' $.0.t.2X,Xh.p.v v , @ - 3 b x z K b A . ",
"b. XH.x.I.L I.K.I.H.Q._.sXoXg _ h h y.9.! X.1.2.#.#.' $.%.X.5. .k.0.5.k.kXo._ ' )  .o._ _  .' ' f k k j k i.$.6.3.3.#.@.3.:.#.i.t.k.d.+XnXoXoX$XnXH.$X%X%XbXVX- ",
"L b p 8 m 6 4 6 ; Z v v c.S S Y f h h ^ s X.o. ...u.' d 0. .2...&.5Xj.0.w.6. .$.1.&.../ ! { { _ j _ j g s @.#.$.#.@.( ` %.@.&.;.i.t.C H C B v A S D q B D A.}.c.",
"1 H =.Z m 6 Z Z P Z 8 p U J S K K jX_ y.[ s. .1.u.o.%.1.e.9.,Xa.] %.3.u.s.&.2._ ! } ' ' ' ~ k f y g ! y g d ~ ' ( ` k k ` #.i.p.:.U J *.J c H K U A c Y M.D.c.Q.",
"> V Z p m H Z H H m N p N C v.A W Y v 2. .{ p.1.}  .1.q.4.e.0.g...$.0.s.u.kX' ~  .d ~ &._ ! a y i g g y y y ! ( ' k k k l ) #.] c.Y v L n J =.L L L B m.*.m.Y =.",
"x x p c p > > m p p V U V > p N.P x C 0 n +.+.k.4.| s.-Xh.rX>X6Xs.2.6.7.;.] 3..._ _ ( g X.s t i e i r y y y h i i g g ` ) ) l Q B.M.A 6 H V H Y =.*.A.P.E U K p ",
"p H B V 8 p m 6 8 4 N ; 6 m H v C c I b K *.+.AX$.t.| tX2.9XjXe.#.#.&.#.` ..3.&._ ~ ~ d r a s ! e w e r y y i w y i g d k k k Q G M.V 6 p A N m Z A Z N.m.m.=.v ",
"p m L 8 4 Z Z p 8 6 8 4 N B =.=.Y Y c.x S C n H t.| o.;X9.+.h.tX..%.o.-.#.:.#.p.t.~ d ) e r r O.t s t e = y w w y k s ! l F =.M.G P Z H T T x.6 A A T B.M.P U J ",
"8 4 4 N N N N N Z m 8 4 I P P H c R Y v K u v c H c H 3.9.4X&Xu...&.3.p.3.:.&.y.;.( j r h e % = r s r s = = i i k y s X.V V A D A S v m.M.W m.Z T Q P T Y I B 3 ",
"8 5 q 8 4 N G N D A G I D G Y E C v 0 2 9 B c 7 6 1 1 m *.9.e.u.jX-.3.k.6.1.u. ...| j a e w = w BX= * r = = = = e e p u ; u 1 B c J A L T P T T H T B.I A W 8 z ",
"9 D 5 : 8 5 B W q Q D q q S Y D I I E 0 q N c < < B p V H H p u.t.d.6.1.0.2.e.u..._ ! ~ e a & & r % * a y = * = =.p v x x > 1 6 c V V H m T T ,.H J M.T I I 0 J ",
": W v R 5 Y G I D N v 5 C B Z I v W T 2 7 7 ; 5 > 6 H L A J x H x > i p j.2.3.p.&.o.-.( s d s a s r a a y ].<.M *.> p x , , 1 K B Y Y J Z B Z L L H P M.F M.Y 8 ",
": D D I I P 4 N I Z 4 8 N q 8 T B q ; q < 8 5 5 c H 6 P N K x.B C p > ; p u c O u 6 > 1 y.3 M 7 1 L 1 > =.K.L L p V u n , 1 x 8 P N Y A M.=.H H 6 > p 4 > 6 c 7 ",
"5 B q G N 8 A T A Z 4 N I 5 N 4 ; < # v : 8 A 8 c J 6 B p B H I B I v 8 N c 7 + 3 5 P m Z H < 4 p > p Z K v p > p p > 1 1 v 6 c q c 5 8 N I M.P P N 8 M.4 8 1 @ ",
": q B B C K D N P N L F B A 8 8 7 ; B # + 7 8 ; < c J c B V p c < C 8 x < S < . , ; N p ; c 8 m V 8 ; > Z H 1 , 1 6 p 1 u *.L A C B N N B < ; F P Z ; P P T b . ",
"1 ; , 1 p n v B D 5 6 T N N 4 ; H 2 J b # 7 > 4 5 < B T c 8 p x < 7 < , < c 3 . + > 6 1 Y p p P 4 ; 4 Z p H 2 # p u * , p V N c C T V C v c Z p 4 A 8 8 B A C . ",
"> ; , > p 8 8 p 8 B 8 q B D P I B D c x + , : < 5 q P D C c < q C 5 D J T c q . # # # B 8 D A C Z ; m H A 1 3 3 # - $ # # p H Y T P K I c 7 7 8 8 G q 4 7 Y A E ",
"3 , < > c p 4 < 4 4 5 : v I q G 5 q < 3 $ 2 c 8 I E I A A q q D 5 A I 8 5 p c + # @ , # ; J J B U Z p > > 4 # > n u   @ c.p V H A J H c B C p c G A J 7 7 N c . ",
"B 2 5 B M.5 J 7 8 8 ; > ; < v c N < , S 2 7 B I B B I Y A C B C q D B 3 c v B . x 3 2 # , < < B J Y B 2 < ; , v , # v , x # 1 7 8 C B B c x C 6 Z Z Z Z 5 4 ; 7 ",
"3 3 0 K p S @ 3 < 8 6 < : , # # # # , 2 @ - 2 x : : D S D D V b D B 3 p 3 # # . - z # 3 x # 7 7 x , : 2 2 : + $ - . - + c.9 @ , x b u , , , , 7 p p B v Y # # c ",
"$ , + 9 3 # 2 2 , , + , 3 # + $ @ . O . .     .   . .   + - u 3 : : 2 > + . .     + @   . + . + 9 @ . . + @ . . O         . @ O @ . # # + + @ + K # v , 0 3 , + "
};
