/* XPM */
static char *result[] = {
/* columns rows colors chars-per-pixel */
"80 80 225 2 ",
"   c #000000",
".  c #0C0505",
"X  c #030A04",
"o  c #0E0D03",
"O  c #04060B",
"+  c #0D0C0C",
"@  c #150E0D",
"#  c #051405",
"$  c #09180C",
"%  c #0D1B13",
"&  c #171915",
"*  c #0B240C",
"=  c #15240C",
"-  c #0C2815",
";  c #132314",
":  c #172B19",
">  c #173419",
",  c #1B3A1D",
"<  c #2A2C11",
"1  c #24381D",
"2  c #192E25",
"3  c #1B3826",
"4  c #263926",
"5  c #2D3729",
"6  c #293D32",
"7  c #482526",
"8  c #6B3535",
"9  c #1D4127",
"0  c #1D4533",
"q  c #284428",
"w  c #2A442B",
"e  c #26492B",
"r  c #34482C",
"t  c #294935",
"y  c #344C32",
"u  c #394936",
"i  c #344D3A",
"p  c #305132",
"a  c #385538",
"s  c #3A543C",
"d  c #524B0E",
"f  c #5E560F",
"g  c #786E14",
"h  c #7D7316",
"j  c #7D7519",
"k  c #7F781A",
"l  c #424E3C",
"z  c #44583B",
"x  c #4E6031",
"c  c #737B38",
"v  c #161E43",
"b  c #283474",
"n  c #503F41",
"m  c #2E4F42",
"M  c #394D42",
"N  c #375646",
"B  c #3D5C42",
"V  c #3C5C4A",
"C  c #3B5E51",
"Z  c #3D6149",
"A  c #3E6654",
"S  c #504C45",
"D  c #435C44",
"F  c #485946",
"G  c #465548",
"H  c #435D4A",
"J  c #455E51",
"K  c #525C53",
"L  c #436245",
"P  c #43644C",
"I  c #4B6749",
"U  c #4B644B",
"Y  c #45694D",
"T  c #55684B",
"R  c #59714C",
"E  c #476553",
"W  c #4C6B54",
"Q  c #436658",
"!  c #4B6659",
"~  c #456B5A",
"^  c #4B6D5B",
"/  c #556B56",
"(  c #4C7255",
")  c #4D725B",
"_  c #53745B",
"`  c #5A7658",
"'  c #54795D",
"]  c #65795A",
"[  c #565E7A",
"{  c #4D6E60",
"}  c #566C65",
"|  c #4D7362",
" . c #4D7866",
".. c #537563",
"X. c #597965",
"o. c #5B7C64",
"O. c #587569",
"+. c #557B6A",
"@. c #5B7F71",
"#. c #7D6367",
"$. c #647B66",
"%. c #6B7C73",
"&. c #9E0038",
"*. c #A40039",
"=. c #9B2C21",
"-. c #C90706",
";. c #CC0807",
":. c #CD0908",
">. c #D40000",
",. c #D30807",
"<. c #D50B0A",
"1. c #C6110E",
"2. c #D91211",
"3. c #D91A18",
"4. c #E03705",
"5. c #DE3C33",
"6. c #E2322E",
"7. c #E33632",
"8. c #E43935",
"9. c #896F1B",
"0. c #926D1A",
"q. c #827616",
"w. c #86771A",
"e. c #B95C26",
"r. c #886629",
"t. c #847A24",
"y. c #897D23",
"u. c #B76531",
"i. c #A57537",
"p. c #E24001",
"a. c #C85629",
"s. c #EE4433",
"d. c #F44335",
"f. c #ED104B",
"g. c #F40156",
"h. c #F42146",
"j. c #924949",
"k. c #AB5354",
"l. c #B47546",
"z. c #9C6567",
"x. c #F44E41",
"c. c #D56B6B",
"v. c #D56E6B",
"b. c #DB6E6E",
"n. c #E86164",
"m. c #E47373",
"M. c #E27876",
"N. c #E67878",
"B. c #6D8134",
"V. c #6C825D",
"C. c #5B826A",
"Z. c #5D8572",
"A. c #668669",
"S. c #738A6C",
"D. c #678975",
"F. c #748B78",
"G. c #6B9279",
"H. c #74947A",
"J. c #8A8127",
"K. c #958C3A",
"L. c #F69415",
"P. c #FCB708",
"I. c #FEC107",
"U. c #FEC30A",
"Y. c #E0CE34",
"T. c #EEDB38",
"R. c #FDDC3A",
"E. c #F6E337",
"W. c #FEEB3A",
"Q. c #819277",
"!. c #C59F76",
"~. c #C2A377",
"^. c #FED354",
"/. c #F2E142",
"(. c #225B98",
"). c #3D4FAD",
"_. c #3E51B5",
"`. c #3D55B8",
"'. c #3561B7",
"]. c #4253AB",
"[. c #4757B6",
"{. c #3369CA",
"}. c #2778C1",
"|. c #6E8F81",
" X c #788E82",
".X c #789985",
"XX c #7EA58E",
"oX c #1499C9",
"OX c #348BDC",
"+X c #06B7CA",
"@X c #00BBD4",
"#X c #2E8DE8",
"$X c #2E90E7",
"%X c #2593E9",
"&X c #2196F3",
"*X c #2D9BF3",
"=X c #6DBAF6",
"-X c #0FC0D6",
";X c #4CCDDF",
":X c #50D0E1",
">X c #859788",
",X c #899E93",
"<X c #AB8A8C",
"1X c #8DA993",
"2X c #A6B79C",
"3X c #99B3A4",
"4X c #A8BBAC",
"5X c #E6979A",
"6X c #F19DA0",
"7X c #DFB4B7",
"8X c #F4A5A8",
"9X c #B1C6B6",
"0X c #EEBEC2",
"qX c #EFC0C4",
"wX c #F6C6C6",
"eX c #F7C3C8",
"rX c #FCC5CA",
"tX c #FCCACE",
"yX c #FECDD2",
"uX c #F6F2EB",
"iX c #EDF7FB",
"pX c #F7F7F1",
"aX c #F9F6F5",
"sX c #F4FAFD",
"dX c #FEFEFE",
/* pixels */
"+   : %...1X4X9X4X4X3X XK 3X4X X X1X,XG 6 4XO.@.|.,X.XG.@.3XD.,X1XA >X9X3X4X3.:.,.<.,.,.;.,.,.,.<.,.<.,.,.<.,.,.,.,.<.,.>.9X%.3X,X1XO.3X,X4X3X3X1X>X>X4X3X9X4XF.",
"4 9X3XO.O...%.D.! Q { +.! ! { K N C 6  X}  .O.Z.@.Z.O.D.G..XF..X XF.D. XC..X-.>.>.>.>.>.>.>.>.>.>.>.>.>.>.>.>.>.>.>.>.>.>.5 K G V E C ! J J W ! ../ ..F.^ ` T / ",
"> G.D.$.$.D...D.@.^ | @...~ Q ! Q ^ C ! } { @.+.|.Z.$.|.D.Z.D.D.Z.D.H.F..X3X:.>.>.>.>.>.>.>.>.>.>.>.>.>.>.>.>.>.>.>.>.>.>.@ m Q | ~ ) C.Z.| / ^ ' P E o._ H.! G ",
"_ o.o.D.D.C.+.....o.| ^ ^ Q Q O.O.^ E ^  .O.A  .@.+.D.Z.D.C.|.G..XG..XH.XXG.:.>.>.>.>.>.>.>.>.>.>.>.>.>.>.>.>.>.>.>.>.>.>.S J ^ ) |  .Q { ~ A V o.' W ..o.D.U $.",
"Y  XC.D.+.A.+.~ ..{ { ....| { { { ..Q ^ Z ~ +...G..X|.G.G.|.G..X|.XX>X1X|.1X3.3.2.2.2.2.2.2.2.2.2.2.2.2.p.p.p.p.4.2.2.2.2./ ! ! Z.~ D.D. .)  .) ^ ` o.$.o.G.F.G ",
"A.E +.Z.+.+.D.Z.o.O...Q O.| ~ Q ~ ..J } ~ ^ +..XD..X.XG.1.-.:.:.:.:.:.;.:.:.7.5.7.7.7.7.8.7.7.7.7.7.7.7.P.P.P.P.L.8.7.7.7.:.:.:.:.-.$.+.+.C.C...D.D.H.C.$.o.$.J ",
"D.D.+.+.+. .Z.Z.D.+.| Q ~ { .. .| ^ ^ |.O...D.o.Z..XXXG.-.>.>.>.>.>.>.>.>.>.7.8.8.8.8.8.8.8.8.8.8.8.8.8.P.U.I.I.L.8.8.8.7.,.>.>.>.>.$.' .XG.' ..W ' ) ..F._ / H ",
"G.o.C.C.Q | | @.@.D.| Q C Q Q C | ~ V G.D._ G...@.D.G.Z.:.>.>.>.>.>.>.>.>.>.7.8.8.8.8.8.8.8.8.8.8.8.8.8.P.P.I.I.L.8.8.8.8.>.>.>.>.>.$.Q Z.C...) V o.) ( H / } $.",
"m Z.Z.Z. . .~ A @.| +.+...| V ~ A.+.+.D.W +...' +.V ) D.-.>.>.>.>.>.>.>.>.>.7.8.8.7.8.8.8.8.8.8.8.8.8.8.P.I.I.I.L.s.8.8.8.>.>.>.>.>.] ( D.,XC...o.E A.D.A./ P ! ",
"3 Z.| ~  .Z.C.~ ~ { Z.C.+.~ +.+.E Q ~ ! X.o.^ C.1.-.-.:.3.7.7.7.7.7.7.7.7.8.g.g.g.f.g.g.g.g.g.R.E.R.E.E.U.I.I.I.^.uXuXaXaX2.>.>.>.>.1XG.G..X.X_ 1XO._ o.$.K ..P ",
"% { A ~  . . .Z.^ @. .C.G.G.( ..V ^ ! ) .._ ^ A.:.>.>.>.3.8.8.8.8.8.8.8.8.8.g.g.g.g.g.g.g.g.g.R.W.W.W.W.U.I.I.I.^.pXdXdXdX2.>.>.>.>.A.G.1X~ C...( ) I W $.B F.y ",
"N C A A A  .Z.A +.C. .X.C.+.+.C.E Q ! } Q D.` ( :.>.>.>.3.8.8.8.7.8.8.8.8.8.g.g.g.g.g.g.g.g.g.R.W.W.W.W.U.I.I.I.^.aXdXdXdX2.>.>.>.>.o.G.C.A...o.C.( ! / ..$.W ! ",
"O.@.{ ~  .Z.Z. .C. .~ ^ ..) ....^ V V U / ) A._ :.>.>.>.3.8.8.8.8.8.8.8.8.8.g.g.g.g.g.g.g.g.g.R.W.W.W.W.U.I.I.P.^.dXdXdXdX2.>.>.>.>.$.G.D.D..XA.A.( O./ P A.A./ ",
"A O.Z.|. .|  .A A ~ Q { ~ ) E ~ ....P 1.:.:.;.:.6.6.7.7.h.g.g.g.g.g.g.g.g.g.g.g.g.g.*.. . . . o o o o o o o o o o + @ + + . . . . . O X X X O D.H.` / N X.D.A./ ",
"{ Q  .Z.{ A | A A A C N Q A O.) _ ^ ..;.>.>.>.>.7.8.8.8.f.g.g.g.g.g.g.g.g.g.g.g.g.g.*.. O                                                     D.O.U / ` H ` H.A.",
"C A ~ {  .N { C |  .N N O.m ^ D...G.' -.>.>.>.>.7.8.8.8.h.g.g.g.g.g.g.g.g.g.g.g.g.g.&..                                                       H / P W H ' ( $./ ",
" .N A A A A V ^ | Q V ..@.Q A V +.@.P -.>.>.>.>.8.8.8.8.h.g.g.g.g.g.g.g.g.g.g.g.g.g.&..                                                       P ..N U Y W X._ _ ",
" .C N C C m J { { { N Q Q ^ 1.-.-.-.>.f.g.g.g.g.g.g.g.g.g.g.g.g.g.@ . . . . . . . .                                                           X   X X M Y W U M ",
"{ J C ! m m N A A Q E t ..^ -.>.>.>.>.g.g.g.g.g.g.g.g.g.g.g.g.g.g..                                                                                   s P I $.! ",
"M M O X $ 2 2 2 6 6 6 % ; 4 -.>.>.>.>.g.g.g.g.g.g.g.g.g.g.g.g.g.g.@                                                                                   2 2 ; $ ; ",
"6 ^ Q O.! ,XF. X! J $. X.XF.,.>.>.>.>.g.g.g.g.g.g.g.g.g.g.g.g.g.g..                                                                                   U G.D.F.F.",
"..) C A E V P ^ Q C J C J E ;.>.>.>.>.8XeXrXrXrX@ . . . . . . . . .         c.c.b.c.j..       c.c.c.c.c..       7 c.c.c.c.F ( B D a D G ! W s s s N Z Z o._ ..G.",
"N 6 e Z ~ / O.) Q V Q ^ { ^ ,.>.>.>.>.eXyXtXtXyX+       .                   c.m.m.m.j.        c.m.m.m.m..       7 c.m.m.m.S.A.W / D s / T W Z P W ( ' R _ ) A._ ",
"t t V W E ^ Q E Q E ^ ^ E | ,.>.>.>.>.eXyXyXyXyX+                           c.m.m.m.j..       c.m.m.m.m.+       7 b.m.m.m.T Y W s D F ` D Y P W B D L _ ` A.Y _ ",
"m V N ^ W _ F / ^ B E Z W ( ;.>.>.>.>.rXtXtXyXyXo                           b.m.m.m.j..       c.m.m.m.m..       7 c.m.m.m.K o.D G a ] W / s E W H H U Y I P W ( ",
"M t ! D .._ W W ^ ` +   O O k.n.n.n.n.!.~.~.~.~.#.#.#.#.5         8 8 8 8 8 5X6X6X6Xz.X       5X6X6X6X6X+       7 5X6X6X6Xt.h h j k j h k q.h I _ W N t Z D P s ",
"G D t E Y Q _ Y ' A.X   X   <XyXrXrXrXy.w.J.w.w.qXwXwXwX#.O       c.b.b.b.b.rXtXtXtX<X.       0XyXtXyXtX+       S eXtXtXtXy.q.q.q.q.q.h q.q.q.R Y U / Y B p Y i ",
"G N H N W I o.H.o.( O   O + <XyXtXyXyXy.q.q.q.q.wXyXyXyXz.X       c.m.m.m.m.rXtXyXeX<XO       qXyXyXyXyX+       n eXyXyXyXy.q.q.q.q.q.q.q.q.q.a B D ! F t s F t ",
"G M / W X.' ] _ ' ` X       <XyXyXyXyXy.q.q.q.q.wXyXyXyX#.X       c.m.N.m.m.tXyXyXtX<XX     O qXyXyXyXyX+       S eXyXyXyXy.q.q.q.q.q.q.q.q.q.` D I H ^ W L Z H ",
"X.G M W X._ o.W Y i         <XtXyXyXyXy.q.q.q.q.wXyXyXyXz.X       c.m.N.m.m.rXyXyXyX<X        qXyXyXyXyX+ O     n eXyXyXyXt.q.q.q.q.q.q.q.q.q.` A.Y V ' Z B W Y ",
"i D...S.T F / G F $.        k.N.N.N.N.w.q.q.q.q.wXyXyXyX#.O       . . . . . wXyXyXyXtXqXqXqXqXyXyXyXyXyXqXqXqXqXqXyXyXyXyXwXeXwXwXwXwXwXwXwXwXy.h h h W A.Z ( Z ",
"M B I W V ' H ! J F .       k.b.m.m.m.w.q.q.q.q.wXyXyXyX#.O                 qXtXyXyXyXyXyXyXyXyXyXyXyXyXyXyXyXyXyXyXyXyXyXyXyXtXyXyXyXyXyXyXyXw.q.q.q.L Y R Y p ",
"H Z Y I ) D.o.` ] / X       k.b.m.m.m.w.q.q.q.q.wXyXyXyX#.X                 qXyXyXtXyXyXyXyXyXyXyXyXyXyXyXyXyXyXyXyXyXyXyXyXyXyXyXyXyXyXyXyXyXy.q.q.q./ A.C.V.V.",
"N i ' E W P B i $.$..       k.m.m.m.m.w.q.q.q.q.wXyXyXyX#..                 qXyXyXyXyXyXyXyXyXyXyXyXyXyXyXyXyXyXyXyXyXyXyXyXyXyXyXyXyXyXyXyXyXy.q.q.q.S.A.V.V.G.",
"U @.C._ W a Y P / ` X       . . . . o v.b.m.b.m.tXyXyXyXz.O       7XqXqXqXqXtXyXyXyX<X@ + + + b.N.N.N.N.N.N.N.m.N.N.N.N.N.N.N.N.N.N.m.N.N.N.N.w.q.q.q.C.] A.R ` ",
"V B m +.a I N W I I X                 v.m.m.m.m.tXyXyXyX#.        qXyXyXtXyXyXyXyXyX<X.       c.m.m.m.N.m.m.m.m.m.m.m.m.m.m.N.N.m.m.m.m.N.m.m.9.q.q.q.V.] C.R H.",
"M E Q E s E M T R ] .                 c.m.m.m.m.rXyXyXyX#.O       wXyXyXyXyXyXyXyXyX<XX       c.m.m.m.m.m.m.m.m.m.m.m.m.m.m.m.m.m.m.m.m.m.m.m.w.h q.q.] ] L s C.",
"/ Y U P i L z i I T                   c.m.N.m.m.tXtXyXyX#.        qXyXyXyXyXyXyXyXyX<XO       c.m.m.m.N.m.m.m.m.m.m.m.m.m.m.m.m.m.m.m.m.m.m.m.9.q.q.q.T T R ` ] ",
"/ W Y V u w r T l 5 l G S u X         . . + . . b.N.N.N.6XqXqXwXqXyXyXyXyXyX& @ + + .         . . . . . . + . + + . . + . . . . . + + . o @ . r R a T K T D D S.",
", 5 M t 4 1 4 5 1 6 5 6 : ;                     c.m.m.m.6XtXtXyXyXyXyXyXyXyX+                   O                             O               > 1 < # X o = = o ",
"& 5 G G G Q.>X>XQ.>X1X>X>X] X                   c.m.m.m.6XrXyXyXyXyXyXyXyXyX+                                                                 9X2X2X9X9X1X$.K   ",
"P V T K / 5 r K T u l G K $.X                   c.m.m.m.6XtXyXyXyXyXyXyXyXyX+                                                                 y V.x Q.] W S.Q.U ",
"u N u r r l K T z z z D U r y z i A z X         q.w.w.w.l.M.N.N.N.N.M.N.N.N.b.c.c.c.j.                                              s D A.A.z I R x ] V.] ` ` ,X",
"s 5 u 1 4 z u l r 1 s s z a F s t V L           h q.q.q.l.m.m.m.m.m.m.m.m.m.m.m.m.m.j..                                             ` ` z S./ S.` T R V.] R ] ` ",
"F 5 r z z x R 5 a H a M s s z z B y z X         g q.q.q.i.m.m.m.m.m.m.m.m.m.m.m.m.m.j..                                             B I ` A.$.U 1XA.a V.] A.U $.",
"5 r z L a l y a B 0 t N p I D r u y a           h q.q.q.l.m.m.m.m.m.m.m.m.m.m.m.m.m.j..                                           X A.A.H.T ` $.A.H.1XH.T L >X] ",
"K q.h h h h q.q.k h j h j j h h h h h =.=.=.=.=.a.a.a.a.u.i.i.i.i.i.i.i.i.i.i.i.i.i.r.d d d d d d d d d b b b b b F o : F z D D a L ` A.A.F.A./ A.$.x z l I / Q.",
"j q.q.q.q.q.q.q.q.q.q.q.q.h q.q.q.q.q.s.d.d.8.s.d.d.d.d.e.0.w.q.q.q.q.q.q.w.w.q.q.q.q.q.h h q.h h q.h h ].).).).).z T X y I s P ` C.Y ` ' .X] R Q.$.z ` F Q.$.S.",
"q.w.q.q.q.q.q.q.q.q.q.q.q.q.q.q.q.q.q.s.d.d.d.d.d.d.d.d.e.w.q.q.q.q.q.q.q.q.q.q.q.q.q.h q.q.h h q.q.q.q.]._._.]._.G R ` s I L B a I I A.C.C.C.B I C.R D G R S.Q.",
"q.q.q.q.q.q.q.q.q.q.q.q.q.q.q.q.q.q.q.s.d.d.d.d.d.d.d.d.e.w.q.q.q.q.q.q.q.q.q.q.q.q.q.q.q.q.q.h q.q.q.q.)._._._._.B T U w I s ` I a Y ( R a V.A.V.R r _ ] K F $.",
"j q.q.q.q.K.K.K.K.K.K.K.K.K.K.K.K.K.K.s.d.d.d.d.d.d.d.d.e.0.0.0.0.0.0.9.0.0.c c c c c c c c c c B.B.c B.`.'.'.'.`.V I M i I / L y a w P A p Y _ R i u / R Q.F.$.",
"j w.q.q.q.uXpXpXuXpXpXpXpXpXpXpXpXpXpXx.d.d.d.d.d.d.d.d.d.s.d.s.s.5.5.5.5.5.OX%X%X%X%X%X%X%X#X+X+X+X+X+X+X@X@X+XoX).).].].s s L s y e t B ( a a $.T T U F K z l ",
"w.j q.q.q.uXdXdXdXdXdXdXdXdXdXdXdXdXdXx.d.d.d.d.d.d.d.d.d.d.d.d.d.8.8.8.8.8.$X&X%X&X&X&X&X&X&X@X@X@X@X@X@X@X@X@XoX_._._.[...s i y i s t r L V i U $.V.] / F.T F ",
"j q.q.w.q.pXdXdXdXdXdXdXdXdXdXdXdXdXdXx.d.d.d.d.d.d.d.d.d.d.d.d.d.8.8.8.8.8.$X&X&X&X&X&X&X&X&X@X@X@X@X@X@X@X@X@XoX_._._._.V s U U s U D D t p P p U L I ] A.` A.",
"q.q.q.w.q.pXdXdXdXdXdXdXdXdXdXdXdXdXdXx.d.d.d.d.d.d.d.d.d.d.d.d.d.8.8.8.8.8.%X&X&X&X&X&X&X&X&X@X@X@X@X-X@X@X@X@XoX`.].[._.M w A.A.F R z I D z / t W I D I I ] G.",
"l T r r z J.J.w.J.J.uXdXdXdXdXdXdXdXdXx.d.d.d.d.d.d.d.d.d.d.d.d.d.OX$X$X$X$X&X&X&X&X=XiXsXiXiXsXiXiXsXiX-X@X@X@X;XiXiXaXiX[.).).).[.+   X   X     O X W R s H T ",
"X a l a L h q.q.q.q.uXdXdXdXdXdXdXdXdXx.d.d.d.d.d.d.d.d.d.d.d.d.d.$X&X&X&X&X&X&X&X&X=XsXdXdXdXdXdXdXdXdX-X@X@X@X;XiXdXdXdX[.[._.[._.O                 4 U ` F L ",
"B a e p L h q.q.q.q.pXdXdXdXdXdXdXdXdXx.d.d.d.d.d.d.d.d.d.d.d.d.d.$X&X&X&X&X&X*X&X&X=XdXdXdXdXdXdXdXdXdX-X@X@X@X:XiXdXdXdX[.[._._.).O                 T U s s F ",
"% w 4 4 3 h q.q.q.q.pXdXdXdXdXdXdXdXdXx.d.d.d.d.d.d.d.d.d.d.d.d.d.$X&X&X&X&X&X&X&X&X=XsXdXdXdXdXdXdXdXdX-X@X@X-X:XsXdXdXdX[._._._._.O               O u ` ` / X ",
"  1 : 1 > 1 y q w 4 t.y.y.J.y.J.J.y.y.f.g.g.g.f.g.g.g.g.h.d.d.d.d.$X&X&X&X&X&X&X&X&X=XsXdXdXdXdXdXdXdXdX-X@X@X@X:XsXdXdXdX& O O O O Y.T.T.T.T.o         X       ",
"K S./ D ) p ) ) ` W q.q.q.q.q.q.q.q.q.g.g.g.g.g.g.g.g.g.h.8.d.d.d.$X&X&X&X&X&X&X&X&X=XsXdXdXdXdXdXdXdXdX-X@X@X@X:XsXdXdXdX+ O       T.W.W.W.W.o                 ",
"i 5 3 , 9 , > , * q h q.q.q.q.q.q.q.q.f.g.g.g.g.g.g.g.g.h.d.d.d.d.$X&X&X&X&X&X&X&X&X=XsXdXdXdXdXdXdXdXdX-X@X@X@X:XsXdXdXdX+         T.W.W.W.W.o                 ",
": t B e 9 , e e a e g q.q.q.q.q.q.q.w.f.g.g.g.g.g.g.g.g.h.d.d.d.d.$X&X&X&X&X&X&X&X&X=XsXdXdXdXdXdXdXdXdX-X@X@X-X:XsXdXdXdX+         T.W.W.W.W.o                 ",
"- 4 t 3 9 e t t e 9 o X . X f q.w.q.q.9.9.r.0.0.OX#X$X$X$X$X$X$X$X&X&X&X&X&X&X&X&X&X*X*X*X*X*X*X*X*X*X*X@X@X-X-XoX[.[.[.[.O         q.J.w.J.q..                 ",
"3 4 3 4 3 - - 9 3 3 X       f q.q.q.q.q.q.q.q.q.%X&X&X&X&X&X&X&X&X&X&X&X&X&X&X&X&X&X&X&X&X&X&X&X&X&X&X&X@X@X@X@XoX`._._._.O         g q.q.q.q..                 ",
"3 t e 9 , 3 9 > , >         f q.q.q.q.q.q.q.q.q.%X&X&X&X&X&X&X&X&X&X&X&X&X&X&X&X&X&X&X&X&X&X&X&X&X&X&X&X@X@X@X@XoX`._._._.O         g q.q.q.q..                 ",
", 3 p , > e e 3 , ,         f h q.q.q.q.q.q.q.q.$X*X&X&X&X&X&X&X&X&X&X&X&X&X&X&X&X&X&X&X&X&X&X&X&X&X&X&X@X@X@X@XoX`._._._.O         g q.q.q.q.X                 ",
", > > 9 , 9 q e e 9         f q.q.q.q.[ [ [ [ [ {.{.}.{.{.{.{.{.{.&X&X&X&X&X&X&X&X&X&X&X&X&X&X&X&X&X&X&X{.}.}.}.(.v v v v d d d d d < < < < <         p i y q : ",
", > 1 , > q r q e p         f q.q.q.w.].].].]._._._._._.[.`.`.[._.&X&X&X&X&X&X&X&X&X&X&X&X&X&X&X&X&X&X&X_.).`._.b O O     g h h h q.X   . .           r e z > 4 ",
"< r > = , > q z 4 x X       f h q.q.q.].`.].)._._._._._._.)._._._.%X&X&X&X&X&X&X&X&X&X&X&X&X&X&X&X&X&X&X`._._._.b O O     g q.q.q.q..                 s a y 4 y ",
"= z q x > a r a r q         f q.q.q.q.]._._._._._._._._.)._._._._.&X&X&X&X&X&X&X&X&X&X&X&X&X&X&X&X&X&X&X`._._._.b O       g q.q.q.q.X                 s p L a , ",
"= r r r a p > q a e         f q.q.q.q.]._._._._._._._._._._._._._.&X&X&X&X&X&X&X&X&X&X&X&X&X&X&X&X&X&X&X`._._._.b O       g q.h q.q..                 > ; , 4 , ",
"> q 1 y q , t a e e         f h q.q.q.T././././.+ O O O 3 e t s e _.`.`.`.`.`.`.`.`._._.`.`.`.`._._.`.`.m 6 2 - 3         g q.q.q.q.X                 D > , : # ",
"= 1 q q w y r q p q         f q.w.q.q.E.W.W.W.W.o       4 6 3 4 = ).].`._.[._._._._._._.[._._._._._._._.t t 2 ; 2 O       g q.q.q.q..                 y a a 5 X ",
": * ; : 3 5 w q r > X       f h q.w.q.E.W.W.W.W.o       , , 3 2 - )._._._._._.)._._._._.)._._._._._._._.6 0 : $ 3         g q.q.q.h X                 > q w w X ",
"- * ; - 3 , , 3 , q         f q.q.h q.E.W.W.W.W.o       q 4 : 1 q )._._._._._._._._._._._._._._._._._._.i > : : $         g q.q.q.q..                 > , s w z ",
": ; : = 3 3 > ; > > > = 1 r X . o X X o o o o o r z y q r 1 1 y > y a 4 , 4 6 # % & 2 % - i i w m 6 3 - - : $ - 6 : X # u . X o X .           3 p q y > > 4 4 # ",
"q : > 4 I > y : , , * - * : X                   1 q u z e w e w 1 r q : 4 4 w X 2 2 : # ; : : q i i q : : * ; w ; % 4 ; 4 O                   > e e e e > > * , ",
": : 4 u 3 r # 1 = , > - : =                     = = r q r r w 5 r e : 2 : $ % X & 2 $ 2 4 $ > 1 4 ; = : ; = # $ & X & $ M                     : 3 3 4 6 a $ $ 4 ",
"= ; # 2 : % : ; ; ; $ ; : $                     X X X X $ & 2 : ; = : - $ X X   X # #   X X X # : + X X $ $ X X +   X                         # u $ 4 ; 1 : ; # "
};
